/* XPM */
static char *c96221270218412abb2875da65ed9c49SSpiY5aoAJp46ytP[] = {
/* columns rows colors chars-per-pixel */
"64 64 190 2 ",
"   c #2B2927",
".  c #35312D",
"X  c #343230",
"o  c #393635",
"O  c #3C3937",
"+  c #3D3A39",
"@  c #533E1E",
"#  c #483D26",
"$  c #413D37",
"%  c #564627",
"&  c #594D2F",
"*  c #4B4437",
"=  c #46413D",
"-  c #574C38",
";  c #5D533F",
":  c #63522B",
">  c #6A5729",
",  c #775728",
"<  c #745E2B",
"1  c #63553E",
"2  c #625839",
"3  c #796736",
"4  c #464340",
"5  c #4A4643",
"6  c #4E4945",
"7  c #4F4B48",
"8  c #514C47",
"9  c #534E4A",
"0  c #55504B",
"q  c #59534E",
"w  c #555250",
"e  c #5A5551",
"r  c #5E5954",
"t  c #615645",
"y  c #665C43",
"u  c #615C56",
"i  c #645F59",
"p  c #6A604E",
"a  c #776847",
"s  c #7E7546",
"d  c #6A6253",
"f  c #66615C",
"g  c #69635E",
"h  c #766C55",
"j  c #7C7050",
"k  c #6C6761",
"l  c #6E6863",
"z  c #726C66",
"x  c #786E63",
"c  c #746E69",
"v  c #7C7264",
"b  c #77706A",
"n  c #7A736D",
"m  c #7D7770",
"M  c #7F7872",
"N  c #855C20",
"B  c #91682A",
"V  c #997628",
"C  c #836E31",
"Z  c #846839",
"A  c #867439",
"S  c #977C37",
"D  c #A57B2C",
"F  c #B77D26",
"G  c #A57C3F",
"H  c #B07C30",
"J  c #826D47",
"K  c #8C794E",
"L  c #967F4E",
"P  c #86785C",
"I  c #9B7E54",
"U  c #927D59",
"Y  c #A27F4C",
"T  c #8C7A63",
"R  c #807568",
"E  c #84796D",
"W  c #837C74",
"Q  c #867F78",
"!  c #98833B",
"~  c #AB852D",
"^  c #B78729",
"/  c #BE9129",
"(  c #A4873B",
")  c #B78D3A",
"_  c #BFA136",
"`  c #CE8B26",
"'  c #D48E24",
"]  c #D88F21",
"[  c #C79729",
"{  c #CA9929",
"}  c #D79529",
"|  c #DD952A",
" . c #C48B36",
".. c #CB8E35",
"X. c #C68E3B",
"o. c #CE9134",
"O. c #C79C35",
"+. c #CD9F37",
"@. c #D79532",
"#. c #D49639",
"$. c #E39623",
"%. c #E69925",
"&. c #EB9B23",
"*. c #F09E22",
"=. c #D5A12B",
"-. c #DBA52B",
";. c #DFA82A",
":. c #CAAA3A",
">. c #D5A434",
",. c #DDA933",
"<. c #D3A43B",
"1. c #DDBA3A",
"2. c #EBA429",
"3. c #E5AD2B",
"4. c #EBAD2B",
"5. c #EDB22A",
"6. c #EDB82F",
"7. c #E1AC31",
"8. c #EFBD32",
"9. c #E9B935",
"0. c #F1BF32",
"q. c #EBC036",
"w. c #EDC639",
"e. c #EFC839",
"r. c #F1C637",
"t. c #F1C939",
"y. c #9B8C4C",
"u. c #9B8459",
"i. c #A68446",
"p. c #B98A46",
"a. c #A69049",
"s. c #A9944C",
"d. c #BD9847",
"f. c #A48251",
"g. c #A9905C",
"h. c #BC9554",
"j. c #B8AA4E",
"k. c #8D816F",
"l. c #9B8866",
"z. c #91846D",
"x. c #8F8473",
"c. c #878079",
"v. c #8C847C",
"b. c #90877E",
"n. c #948878",
"m. c #A18D67",
"M. c #A9916D",
"N. c #B79C64",
"B. c #A59479",
"V. c #CF9745",
"C. c #CA9F41",
"Z. c #CAA34A",
"A. c #D3BA44",
"S. c #DACA4F",
"D. c #E9C944",
"F. c #F1CF40",
"G. c #EFD145",
"H. c #F1D344",
"J. c #F0D649",
"K. c #F1DB4D",
"L. c #E1D150",
"P. c #F1DF52",
"I. c #F2E052",
"U. c #8D8680",
"Y. c #8F8881",
"T. c #948C84",
"R. c #988F86",
"E. c #968F89",
"W. c #979086",
"Q. c #999087",
"!. c #979088",
"~. c #9D948B",
"^. c #9F988F",
"/. c #9F9790",
"(. c #A19482",
"). c #A0978F",
"_. c #A1988F",
"`. c #A09790",
"'. c #A29A91",
"]. c #A39A92",
"[. c #A39B92",
"{. c #A49B93",
"}. c #A49C93",
"|. c #A49B94",
" X c #A69E96",
".X c #A89F97",
"XX c #A7A097",
"oX c #A8A097",
"OX c #AAA29A",
"+X c #ACA49C",
/* pixels */
"+X+XOXOX X'.'. X|.'.'.~.~.~.~.~.~.~.).'.}.'.~.~.~.~._._.~.~.~.~.'.'.'._.~.~.~._.'._.'.'.'.'.'. X}.'.'.}.'._.'.'.'. X XOXOX+X+X+X",
"+X+XOXOX X'.'.{.{.'.).~.~.~.~.~.~.~.~.~.'._.^.).~._.'.'.~.~.~.Q.~.~._.~.~.~._.'.'.'.}.}.}.}.}. X}.'.^.'.}.'.'.'.'. XOXOXOXOX+XOX",
"OXOXOX X X'.'.'.'.~.~.~.~.~.~.~.~.~.~._.'.'._.'.'.'.}.'.'.'.~.Q.R.~.~.~.~.Q.~.'.'.}. X X X}.}. X}.'._.'.}.'.'.'.}. XOXOXOXOXOXOX",
"OXOXOX X X'.'.).).~.~.~.~.~.~.~.~.~._.'.'.'.'.'.'.'. X}.'. X'.~.Q.R.R.T.T.T.~.'. X X X X X'.'. X X}.'.'.'.'.'. X X XOXOXOXOXOXOX",
"OX X X X|.'.)._.~.~.~.~.~.~.(.~.~.^.'.'.'.'. X'.~.'.}.}.}.'.'.'.~.Q.R.R.M.Q.~.'. XoX X X X'.'.{.'._._.)._._._.}. X X XOXOXOXOXOX",
" X X X X'.'.'.{.'.'._.~.~.~.N.B.~.~.'.'.'.'.}. X'.'.}. X'._._._.~.~.~.Q.h.(.~.'. X}.'.}.'._.~.'._.~.~.'.'.'._.'.'. XoXOXOXoXOXOX",
" X X X X X'.|. X X X'.'.'./.Z.N.E.~.~.'.'.'.'.'.'.}.}.'.'._.'._.~.~.~.Q.V.B.~.'. X'.'.'.~.~.'.'.'.'.~._.'.'.'.'.'. XOXOXOX XOXOX",
"{. X'.'. X'.'.'. X X/.~./.~.N.C.n.T.~.~.'.'.'.'.'.'.'.'._.'.'.'.~.~.R.n.#.M.~.~.'.'._.~.~.~.'. X X X'.~.~.~._.'. X XOXOXOXOXOXOX",
"{.'.'.'.'.'.'.'.|.'.~.~.R.Y.m.3.h.c.T.~.~.'.'.'.'.'.'.'.'.'.'.'.~.R.Y.x.@.h.T.~.~.~.~._.'.'.'. X X X'.'.'.~.T.~. X X X XOXOXOXOX",
"'.'.'.'.'.'.{. X X'.~.R.T.c.z.7.,.l.c.T.~.^.'.}. X X X}.'._._._.~.R.v.x.@.#.b.R.~.~.^.'.'.'.'. XOXOX X X'.~.v.R.'. X X X XOXOXOX",
" X'.'.'._.'.'.'.'.'.~.R.v.W E <.5.<.l.c.R.~.~.'. X X X}.'.~.~.~.~.T.Q E @.%.l.Y.R.~.^.~.~.~.~._. XOXoX X X X~.~. X X X X X XOXXX",
" X X'.~.~.).)._._.~.~.R.v.W b d.5.5.<.k.v.R.~.~.~.'.}.'.'.~.~.~.T.v.W T ..&.p.c.T.~.~.~.~.~.~.'. X X X X X X'.'. X XOXOXOX X X X",
" X X~.~.'.'.'.~.~.~.~.R.v.W z L 5.5.5.C.z.U.!.~./.'.'.'.'.~.~.R.T.v.E Y  .&.| T v.T.Q.~._.}. X}. X X X X X X'.'.'. XOXOXOX X X'.",
"'.'.).'.'.).~.~.~.~.~.R.v.M v j >.5.5.5.<.l.U.E.~.~.'.'.).~.~.~.T.W v  .} &.&.i.M c.R.~.~.'.}.}. X X X'. X X X}.'.'. X X X X'.'.",
"'.~.~.'.'.'.).~.~.~.~.R.v.m P ) ( 5.5.5.5.,.m.U.R.~.~.'.~.~.~.~.T.W z  .&.&.&.| U Q T.R.~.~.~._.'.}. X}. X X X X'.'.'.'.'.'.'.'.",
"'.~.~.'.'.'.).~.'.'.~.R.v.m h +.=.5.5.5.5.5.7.g.v.T.~.~.~.~.~.~.R.Q c G &.&.&.&.X.E v.T.Q.~.~.'.'.'. X X X X X X'.'.~.~.~.~.~.~.",
"~.~.~.'.'.'.~.~.'.{.~.~.T.W k i.5.5.5.5.5.5.5.3.g.c.T.!.~.~./.~.T.W z J $.&.&.&.%.I M v.T.R.~.~._.'.'. X X X X X X X'.'.'.).~.~.",
"~._._.}. X'.~.~._.'.~.~.T.W l p +.5.5.5.5.5.5.5.3.d.x.Y.E.~.~.~.T.W z u ^ &.&.&.&...R c.Y.R.~.'.'.}.}. X X X X X X X X X{.'._.).",
"~.~.'.'. X'.~.~.~.~.~.~.T.W z e Z 3.5.5.5.5.5.5.5.5.C.x.U.R.~.~.T.Q z a Z $.&.&.&.%.I W v.R.~.'. X X X X X X X X X'.}.{.}.}.'.'.",
"~.~._._.).'._.).~.~.~.~.T.W z r 5 V 5.5.5.5.5.5.5.5.5.C.z.U.T.R.Y.W z G B F &.&.&.&.o.E W v.R.~.'.'. X X XOX X}.'.{.}.'.'.{.'.~.",
"~.~.~.~.~.~.).'._.).).~.R.v.b u t * ^ 5.5.5.5.5.5.5.5.5.<.l.c.v.c.W z a ' ` &.&.&.&.&.f.W v.R.~.'.}. X XoXoX X'.'.{. X}.'.).).~.",
"~.Q.~.~.~.~.~.).~.~.~.~.R.c.n i K S : { 5.5.5.5.5.5.5.5.5.,.l.Q Q W z u H &.&.&.&.&.&...E v.R.~.'.'. X X XoXoX X X X X X'.'._.~.",
"~.~.~.~.~.~.~.~.~.~.~.Q.T.v.m g d +.{ V [ 5.5.5.5.5.5.5.5.5.,.u.M n z r 1 ] &.&.&.&.&.%.u.Q T.~.~.'.'. X X.X X}.}.{.}.oX X}.'.~.",
"~.~.~.~.~.~.~.~.~.~.~.Q.T.v.W z r J 5.5.3.5.5.5.5.5.5.5.5.5.5.7.u.c l r t B %.&.&.&.&.&...W T.~.~.'.'.}.}.{.'.'.).).'.{.'.'.~.~.",
"R.~.~.~.~.~.~.~.~.~.~.Q.R.T.c.n f q S 4.5.5.5.5.5.5.5.5.5.5.5.5.,.U f e Z , B &.&.&.&.&.%.I Q T.~.~.).'.'._.'.~.~.~.~.~.~.~.~.~.",
"~.~.~.~.~.~.~.~.~.~.~.~.Q.R.v.M z r 6 C ;.5.5.5.5.5.5.5.5.5.5.5.5.,.K w 1 ` F $.&.&.&.&.&...E v.R.~.~.~.~.~.~.~.~.~.~.~.~.~.~.~.",
"~.~.~.~.~.~.~.~.~.~.~.~.~.R.T.W b f 9 $ > =.5.5.5.5.5.5.5.5.5.5.5.5.>.a 4 D *.&.&.&.&.&.&.%.f.c.T.~.~.~.~.~.~.~.~.~.~.~.~.~.~.~.",
"~.~.'.'.~.~.~.~.~.~.~.~.~.R.T.c.W z u 6 o % ^ 4.5.5.5.5.5.5.5.5.5.5.5.O.* & ' &.&.&.&.&.&.&.o.W Y.~.~.~.~.~.~.~.~.~.~.).~.~.~.~.",
"~.).'.'.).~.~.~.~.~.~.~.~.Q.R.T.Q n k e ; : > / 5.5.5.5.5.5.5.5.5.5.5.5.S X , ' &.&.&.&.&.&.%.u.c.R.~.~.Q.~.~.~.~.~.).'.'./.~.~.",
"~.).).'.).~.~.~.~.~.~.~.~.~.~.R.v.W c i t ) 3.4.5.5.5.5.5.5.5.5.5.5.5.5.-.&   @ ] &.&.&.&.&.&.p.Q T.~.~.~.~.~.~.~.~.'.'.'.'.~.~.",
"~.~.'.'.'.~.~.~.~.~.~.~.~.~.~.Q.T.v.m k e 1 [ 5.5.5.5.5.5.5.5.5.5.5.5.5.5.D % N ] &.&.&.&.&.&.o.W T.~.'.'.~.~.~.~.).'.'.'.'.~.~.",
"~.).'.'.`.~.~.~.~.~.~.~.~.~.~.~.R.T.W c f 9 - ~ 4.5.5.5.5.5.5.5.5.5.5.5.5.;.: ^ 4.4.2.&.&.&.&.| T U.~.~.^._.'.~.~.'.'.`.'.'.~.~.",
"~.'.'.'.'.).).~.~.~.~.~.~.~.~.~.R.T.v.n k r 6 $ < { 5.5.5.5.5.5.5.5.5.5.5.5.O.A.K.K.J.D.4.&.&.&.f.c.R.~.~.~._.^.'.'.'.~./.'.~.~.",
"'.'.'.'._.~.~.~.~.~.~.~.~.~.~.~.R.v.W n z f e = X # V 5.5.5.5.5.5.5.5.5.5.5.8.K.P.P.P.I.K.9.&.&.) W Y.R.~.~._.~.~.'.'.~.~.'.`.`.",
"'._.~.'.~.~.~.~.~.~.~.~.~.~.~.~.Q.T.v.W m c f 9 1 ~ =.5.5.5.5.5.5.5.5.5.5.5.5.G.P.P.P.P.P.K.6.&...E v.R.~.^.'.~.~.'.'.~.~.'.'./.",
"_.).~.~.~.~.~.~.~.~.Q.~.~.~.~.~.R.R.T.T.v.W z i 0 3 / 4.5.5.5.5.5.5.5.5.5.5.5.w.P.P.P.P.P.P.t.4...n c.R.~.'.'.'.'.'.'.~.'.'.'.`.",
"_.).~.~.~.~.~.~.~.~.R.Q.~.Q.R.T.T.R.R.T.v.c.M l r 6 * < ^ -.5.5.5.5.5.5.5.5.5.8.P.P.P.P.P.P.H.0.o.v v.T.~.~.'.'.'.'.'.'.'.'.'.'.",
"~.~.~.~.~.~.~.~.~.~.R.~.~.~.~.Q.R.R.R.R.T.v.Q b f q 5 o . % V 3.5.5.5.5.5.5.5.6.K.P.P.P.P.P.H.r.+.x Q T.~.'.'.'.'.'.'.'.'.'.'.'.",
"~.~.~.Q.~.~._.).~.~.~.~.~.~.~.~.~.~.~.~.~.R.v.W z i q 5 O < { 5.5.5.5.5.5.5.5.5.J.P.P.P.P.P.H.t.:.z W Y.~.'.}.'.'.'.'.'.'.'.`.'.",
"~.Q.T.T.~.~.~.'.).).~.~.~.Q.~.~.~.~.~.~.~.T.v.v.m z f q 6 = : V { 5.5.5.5.5.5.5.J.P.P.P.P.P.F.t.1.P W v.R.~.~.~.~.'.'.'.~.).`.~.",
"~.Q.T.R.Q.Q.~.'.'.~.~.~.~.~.~.~.R.R.R.T.T.T.v.v.Q n z f e 6 O   % 9.8.8.q.5.5.5.G.P.P.P.P.P.t.t.e.u.n v.T.~.~.~.~.'.'._.'._.).~.",
"R.R.~.~.~.~.~._._.~.~.~.~.R.R.Q.R.R.Q.T.T.T.T.b.v.W W z f e 5 X < e.t.t.J.q.5.5.G.P.P.P.P.K.t.t.t.s.n v.T.R.~.~.~.)._.'.'._._.).",
"~.~.~.).'._.).'.'._.~.~.~.R.R.~.R.T.R.T.T.T.R.T.b.v.Q W c f 0 + C t.t.t.H.r.5.6.J.P.P.P.P.K.t.t.t.s.n v.W.~.~.~.'.'._.).~.~.~._.",
"~.~.~._.'._._._._._.~.~.~.Q.R.R.R.T.T.T.v.b.T.b.v.v.v.W m z u 5 ! t.t.t.H.t.r.t.K.P.P.P.P.J.t.t.t.s.n v.T.~.~.).'.'.).~.~.~.~.~.",
"~.~.~.~.~.~.~.~.~._._._.~.~.R.R.Q.Q.~.R.b.b.T.T.T.b.v.v.W n f 7 ! t.t.t.H.H.t.H.P.P.P.P.P.H.t.t.t.a.c W v.Q.~.)._._.~.~.~.~.~.).",
"~.~.~.~.~.~.~.~.~.~._.~.~.~.~.Q.R.~.~.~.R.R.~.R.T.T.T.v.v.M k 0 S t.t.t.t.K.H.K.P.P.P.P.K.t.t.t.t.y.k W v.R.~._.'._.).~.~.~.~._.",
"R.~.~.Q.Q.~.~.~.Q.~._._.).~.~.~.R.R.R.Q.~.~.).~.R.T.R.T.v.W z e A w.t.t.t.K.P.P.P.P.P.P.J.t.t.t.w.K c v.Q.~.).'.'.'.).~.~.~.~.).",
"Q.R.R.T.R.R.R.R.R.~._.'.'.)._.}.'.~.~.R.Q.~.Q.R.R.~.~.T.b.v.b u a w.t.t.t.H.P.P.P.P.P.P.t.t.t.t.q.j c v.~._.'._._.'.'.).~.~.~.).",
"R.R.R.R.R.R.R.R.Q.~.~.'.'.'.}.'.'.'.~.~.~.R.T.R.R.Q.R.T.b.v.n f y 1.t.t.t.t.K.P.P.P.P.H.t.t.t.t.A.d b v.~.~.~.~.~.).~.~.~.~.~.~.",
"~.Q.R.R.~.~.~.Q.R.R.~.~.'.'.'.~._.'.'.'.'.~.R.R.R.Q.R.R.T.v.W g 0 :.t.t.t.t.H.P.P.P.H.t.t.t.t.H.j.f M T.~.~.~.~.~.~.~.~._.~.~.~.",
"_.~.~.~.~.~.~.Q.Q.R.~.~.~.~.'.'.'._._.'.{.{.~.~.Q.~.~.~.R.T.W l 0 ! t.t.t.t.t.J.P.K.H.t.t.H.K.P.y.f n v.R.~.~.'.'.'.~.~.).~.~.~.",
").~.~.~.~.~.~.~.~.~.~.Q.~.~.'.'._.~.~.~.'.'.~.Q.~.).~.~.Q.T.W z e y 1.t.t.t.t.t.K.P.P.P.P.P.I.L.h k W v.R.~._.'.'.'.~.~.~._._.).",
"~.Q.Q.Q.~.~.~.~.~.~.Q.Q.~.~.~.~.~.~.~.~.~.~.~.~.Q.~.~.~.~.T.v.b i 8 ( t.t.t.t.t.t.K.P.P.P.P.I.j.u b Q T.~.~.~.'.}.'.).~.).)._.).",
"~.~.Q.~.~.~.).)._._.~.~.~.~.~._._.).'._.~.~.~.~.~.~.~.~.~.R.v.M l e - _ t.t.t.t.t.t.H.K.P.I.S.a f m v.T.~.~.~.~._.'.{.}.}.'.'._.",
"_._.~.~.).}. X{.'.'.).'.'.'._._._.~.).~.~.~.~.~.~.~.~.~.'.~.R.v.b i 7 2 :.e.t.t.t.t.t.t.H.D.s e z c.R.~.~.).~.~.).).)._.'.'.'._.",
"'.'._._._.'. X X{.'._.).'.'.'.'.'._.).~.~.~.~.~.Q.~.~._.'.~.~.T.W z r 6 - 3 _ 9.t.t.t.w.:.3 9 i n v.~.~.~._.'.'._.).~.~.~.~._.).",
"'.'._._.'.'._.'.}.'.'.'.'.}.}.}.'.'._.).~.).}.'.~.R.~.'.'.).~.R.v.m k e 6 + $ & C S A 3 - 6 u z M v.~.'.'.'.'.'.'.).'.}. X'.'.'.",
"}. X{.'.}.'.'.'.'.}.'.'.}.'.}. X X}.'.).~.~.'.~.~.R.~.{.}.'.~.~.T.Q n g e 9 = + O + + $ 6 r l n W v.~.~.~.).'.'. X X XoX X{.'.'.",
" X X}.'. X'._._.'.}.}.'.{.{.}. XoXOXOX{.).~.).~.~.~.'.}. XOX'.~.R.v.W b k u e 9 9 9 9 q u k n Q v.R.~.~.~.'.{.}. XXXoXoX}.{.{.'.",
"}. X}.'._.'.'.{.}.}. X X X}.'.{. X XOX X}.'.'.~.~.).'._._. X}.).~.T.v.W n c k f i i f g z n W v.T.~.~.~.'.{.}.}. XoXXX X'. X X'.",
" X X X}.'.}. X X{.'. X X X X}.}. X|. X X XoX X~.~.'.'.~.~.'.}.'.~.R.T.v.c.W n b c b n n W Q v.T.R.R.~.~.'.'.~.~.'. X X X X X X X",
" X X}. X X X X X X X X X X X X X X'.'.{. XOXoX'.'.'.~.~.~._.{.'.~.~.R.R.T.v.c.Q W W c.v.v.U.R.R.~.~.~.~.'.~.~.~._. X X X XOXoX X",
"OX X'. XoX X}.}.}. X X X X X X}.'.'.'.'. XOX X X X_.~.~.~.~.).'.).~.~.~.R.~.!.T.T.v.T.R.R.R.R.~.~.~.~.~.~.~.~.~.'.'.'. XOXOXoX X",
"OXOX XoXOX X X'._._.).)._._._._._._.).'.'.'. X X X{.~.~._.)._.'.'.'.~.~.~.~.~.~.R.T.R.~.~.~.~.~.).~.).).~.~.~.~.'.~.~.'.OXOXoX X"
};
