/* XPM */
static char *_5354ef8375c4b5f88dacc514f56a92b84a8U1msESFIyIIh[] = {
/* columns rows colors chars-per-pixel */
"64 64 212 2 ",
"   c #36100B",
".  c #4F120D",
"X  c #5A160D",
"o  c #690D0A",
"O  c #740C0A",
"+  c #7B0D0A",
"@  c #6B120C",
"#  c #671B0D",
"$  c #76140C",
"%  c #6B1A12",
"&  c #771F14",
"*  c #4B2F13",
"=  c #573917",
"-  c #72250E",
";  c #682616",
":  c #722818",
">  c #683916",
",  c #713215",
"<  c #4B3427",
"1  c #753421",
"2  c #5B4518",
"3  c #704B18",
"4  c #6E5619",
"5  c #74551A",
"6  c #7C531D",
"7  c #7B6619",
"8  c #534833",
"9  c #744C2D",
"0  c #6C5527",
"q  c #775A26",
"w  c #775B39",
"e  c #7A6627",
"r  c #7A633D",
"t  c #4D4944",
"y  c #514D48",
"u  c #58524A",
"i  c #5A554D",
"p  c #5E5953",
"a  c #645948",
"s  c #625C55",
"d  c #635E59",
"f  c #6E624C",
"g  c #786649",
"h  c #6C6254",
"j  c #66615C",
"k  c #6A645C",
"l  c #726653",
"z  c #796C57",
"x  c #7E715A",
"c  c #6B6661",
"v  c #6E6862",
"b  c #726C65",
"n  c #756E68",
"m  c #76706A",
"M  c #7B746D",
"N  c #7D7770",
"B  c #7F7871",
"V  c #820D0A",
"C  c #8B0E0C",
"Z  c #85120D",
"A  c #8B150F",
"S  c #94110E",
"D  c #9B120E",
"F  c #A1120F",
"G  c #A51310",
"H  c #AB1411",
"J  c #B31512",
"K  c #B91713",
"L  c #BE1814",
"P  c #803A28",
"I  c #C31915",
"U  c #CC1B17",
"Y  c #CF1C18",
"T  c #D41D19",
"R  c #DC1F1B",
"E  c #E3211C",
"W  c #EC231F",
"Q  c #EF2420",
"!  c #F52521",
"~  c #FC2723",
"^  c #FE2824",
"/  c #85561E",
"(  c #8A5B1F",
")  c #925E1F",
"_  c #856C1B",
"`  c #86721B",
"'  c #8C741A",
"]  c #937B1C",
"[  c #8C5E22",
"{  c #915F20",
"}  c #865736",
"|  c #8D6223",
" . c #836A29",
".. c #946121",
"X. c #9C6724",
"o. c #887328",
"O. c #957E24",
"+. c #846B36",
"@. c #926B38",
"#. c #8B7436",
"$. c #947A39",
"%. c #A46C26",
"&. c #AF752C",
"*. c #826C49",
"=. c #956C47",
"-. c #8B7448",
";. c #987A48",
":. c #816F54",
">. c #88785A",
",. c #937E59",
"<. c #A47B55",
"1. c #827B74",
"2. c #867F78",
"3. c #9D851D",
"4. c #A48C1E",
"5. c #AA921F",
"6. c #B0971F",
"7. c #9B8426",
"8. c #9D883E",
"9. c #A28A21",
"0. c #A38B2A",
"q. c #AD9422",
"w. c #AD922C",
"e. c #B49A22",
"r. c #B59B25",
"t. c #A78B37",
"y. c #AE963D",
"u. c #BCA124",
"i. c #BEA229",
"p. c #BAA032",
"a. c #C6AA28",
"s. c #D6B82D",
"d. c #C9AD32",
"f. c #CEB230",
"g. c #D8BA37",
"h. c #DFC039",
"j. c #E6C638",
"k. c #99824A",
"l. c #99835B",
"z. c #A4844C",
"x. c #AD984F",
"c. c #A88A56",
"v. c #AC9158",
"b. c #B69659",
"n. c #BCA44F",
"m. c #9A8765",
"M. c #878079",
"N. c #8B847C",
"B. c #8C857C",
"V. c #90887F",
"C. c #A98E62",
"Z. c #A89167",
"A. c #B89A66",
"S. c #B79F71",
"D. c #BDA469",
"F. c #BCA273",
"G. c #C19F5F",
"H. c #D0B353",
"J. c #C7AA6E",
"K. c #CAB26A",
"L. c #D0B86E",
"P. c #C9AB74",
"I. c #CDB176",
"U. c #D7B67A",
"Y. c #DFC45B",
"T. c #E7CA47",
"R. c #EBCC44",
"E. c #F3D44E",
"W. c #EDCF50",
"Q. c #F3D453",
"!. c #F5D75A",
"~. c #F6D95D",
"^. c #DFC678",
"/. c #E6CA69",
"(. c #F6DA65",
"). c #FADE6A",
"_. c #E9CD78",
"`. c #F7D975",
"'. c #FBE16D",
"]. c #FCE374",
"[. c #FEE67C",
"{. c #FEE87E",
"}. c #8F8781",
"|. c #8F8880",
" X c #948C84",
".X c #988F86",
"XX c #978F88",
"oX c #979087",
"OX c #999087",
"+X c #9D948C",
"@X c #9F988F",
"#X c #9F9890",
"$X c #A0978F",
"%X c #A1988F",
"&X c #A09790",
"*X c #A39B92",
"=X c #A49B93",
"-X c #A49C93",
";X c #A69E96",
":X c #A89F97",
">X c #A7A097",
",X c #A8A097",
"<X c #AAA29A",
"1X c #D9BB81",
"2X c #E5C785",
"3X c #EBD186",
"4X c #F7DA86",
"5X c #FDDF8A",
"6X c #FEE880",
"7X c #FEE18B",
"8X c #FDE494",
"9X c #FFE699",
/* pixels */
"<X<X<X<X;X*X*X;X=X*X*X+X+X+X+X+X+X$X$X*X-X@X+X+X+X+X+X+X+X+X+X+X%X*X*X%X+X+X+X+X%X+X%X%X*X*X*X;X-X*X%X-X*X%X*X*X*X;X;X<X<X<X<X<X",
"<X<X<X<X;X*X*X=X=X*X$X+X+X+X%X+X+X+X+X+X*X+X+X+X+X+X@X+X+X+XOX X X+X+X+X+X+X+X@X*X*X*X*X*X-X-X;X-X*X@X*X-X*X*X*X*X;X<X<X<X<X<X<X",
"<X<X<X;X;X*X*X*X*X+X+X+X+X+X+X+X+X+X+X+X%X+X+X+X+X+X@X+X+X+X+X X X X X+XoX X+X+X+X*X*X*X-X=X=X;X-X*X%X*X-X*X*X*X-X;X,X<X<X<X<X<X",
"<X<X<X;X;X*X*X$X$X+X+X$X$X+X+X+X+X+X@X@X+X+X+X+X+X+X+X+X+X+X+X X XV.B.B.V.B. X+X+X@X*X*X*X*X*X;X;X-X*X%X*X*X*X;X;X;X,X<X<X<X<X<X",
"<X;X;X;X=X*X$X$X$X+X+X%X+X+X+X+X*X*X*X+X+X+X+X X X X X X X X X XB.N.N.N.B. X X X+X+X+X@X*X@X$X*X*X%X%X$X%X%X%X-X;X;X;X<X<X<X<X<X",
";X;X;X;X*X*X*X=X*X=X*X*X*X*X@X*X*X*X*X+XoX X X|.N.N.B.B.N.M.M.M.2.2.M.M.M.M.N.B. X X X+X+X+X+X%X$X+X+X*X%X%X%X*X*X;X;X<X<X,X<X<X",
";X;X;X;X;X*X=X;X;X;X*X-X<X<X*X*X*X@X+X+X XB.2.1.1.1.1.1.B N M M M M B 1.B B 1.1.2.M.N. X X X+X+X*X%X+X%X*X*X*X*X*X;X<X<X<X;X<X<X",
"=X=X*X*X;X*X*X*X;X;X*X-X<X<X;X+X+X+XoX XB.1.M m b b b b b b v v v v v b b b b n m M 1.M.B. X+X*X-X-X*X+X+X+X%X*X;X;X<X<X<X<X<X<X",
"=X*X*X*X*X*X*X*X;X;X*X*X*X*X+X+X.X X XN.1.m v d d d j j d d p i i p p s s d d p s c b B M. X+X*X-X-X*X*X*X+X X+X;X;X;X;X<X<X<X<X",
"*X*X*X*X*X*X=X;X;X=X%X+X+X+X+X+X X XM.1.m c s *.8 t y y y t a ;.g u y t t y t *.l.i k m 1.N. X+X;X;X;X;X*X+XB. X*X;X;X;X;X<X<X<X",
";X*X*X*X%X*X*X*X=X=X*X+X+X+X+X+X XB.2.M c i l.b.0 0 g >.>.,.k.+.w c.Z.l.z g < } 2X:.u k b M M. X*X;X;X;X;X;X+X+X;X;X;X;X;X;X<X>X",
";X;X*X+X+X$X$X$X*X%X$X$X+X+X+X+X XN.B b p ,.J.o.e.9.#.k.k.o.7.] # @ : 9 9 : + % b.1Xf u k m M. X@X*X;X;X;X;X*X*X;X;X<X<X<X;X;X;X",
";X=X+X+X*X*X*X+X+X+X+X$X+X+X+X+X XM.M d m.U.$.r.j.j.f.5.4.a.s.q.% V C V + V V + ; D.2X*.i M N. X+X*X-X;X;X;X*X*X*X;X<X<X<X;X;X*X",
"*X$X$X*X*X$X+X+X+X+X$X%X$X+X+X+X X2.c z I.$.q.R.~.(.~.W.T.j.j.e.- S K G D D S C + ; c.2X,.k M. X+X*X*X*X;X;X;X-X*X*X;X;X;X;X*X*X",
"*X+X+X*X*X*X$X+X+X*X$X+X+X+X+XXX|.m >.I.$.5.R.].[.[.].].'.Q.j.e.- F U U I I L H S V % C.2X>.M |.+X*X*X;X;X;X;X;X*X*X*X*X*X*X*X%X",
"+X+X+X*X*X*X$X+X*X=X*X$X+X+X+XXXB.x U.v.4.g.(.[.[.'.~.~.(.Q.j.i.- G R W W W W Y J C V : 1XJ.k  X+X+X*X;X;X;X;X-X*X*X+X+X+X+X+X+X",
"+X+X+X*X*X*X+X+X*X;X*X*X*X*X+X+X}.M :.e u.W.[.[.].Q.j.j.j.j.g.a.- G R ! ~ ~ ! W I F V O *.,.M B.+X+X*X-X;X;X;X;X;X;X*X*X*X$X+X+X",
"+X%X%X-X;X*X+X+X%X*X*X*X*X*X+X+X X2.k 0 q.W.[.].(.h.i.e.e.u.a.u.- G R ! ^ ~ ~ ! U J V - r k 2. X+X*X*X;X;X;X;X;X;X;X;X;X=X*X%X$X",
"+X+X*X*X;X*X+X+X+X+X+X%X*X&X+X+X XM.m a O.W.].).g.4._ 5 4 7 9.q.- G R ~ ^ ^ ^ ! T K + } f n M.+X+X*X;X;X;X;X;X;X;X*X-X=X-X-X*X*X",
"+X+X%X%X$X*X%X$X+X+X$X*X*X+X+X+X XM.M z  .d.R.d._ | %...[ / 2 ] , G R ~ ^ ^ ^ ~ R K & -.s m M. X+X*X;X;X;X<X;X-X*X=X-X*X*X=X*X+X",
"+X+X+X+X+X+X+X*X%X%X*X*X*X+X+X+X XM.M k r 9.a.` | &........./ 2 ; G E ~ ^ ^ ^ ! R F 1 -.d M B. X+X*X;X;X,X,X;X*X*X=X-X-X*X$X$X+X",
"+XOX+X+X+X+X+X$X+X+X+X$X+X+X+X X XM.M j *.O.3.q &.X.) ) ) ....6 X G R ~ ^ ^ ~ ! T C =.>.c B B.+X+X*X;X;X;X,X,X;X;X;X;X-X*X*X%X+X",
"+X+X+X+X+X+X+X+X+X+X+X+X+X+X+X X XM.m d z $.7 X.%.[ $.;.@.( ....> S T ! ^ ^ ~ ! Y + A.>.c 1. X+X+X*X-X;X;X:X;X-X-X=X-X,X;X-X*X+X",
"+X+X+X+X+X+X+X+X+X+X+X+X+X+XOX X XM.M j x k.4 &.[ D.8X8X_.@.) ..6 $ I W ~ ^ ~ ! U Z A.l c 1. X+X%X*X*X-X-X=X*X*X$X$X*X=X*X*X+X+X",
".X+X+X+X+X+X+X+X+X+X+X+X+X+X+X X X2.m d x k.6 %.w 3X9X7X7Xc./ ..( % F T ! ~ W R I A A.l j N B. X+X+X*X*X*X%X*X+X+X+X+X+X+X+X+X+X",
"+X+X+X+X+X+X+X+X+X+X+X+X+X+X+X XV.1.b p m.#.( ..< C.8X7X3X8 = ..( % C H T T I L J + <.x d M M. X+X+X*X%X+X+X+X+X+X+X+X+X+X+X+X+X",
"+X+X+X+X+X+X+X+X+X+X+X+X+X+XOX XB.B v s A.e [ ..8 D.4X4X3X8 = ..{ - V C G D D D D V } m.p m 2. X+X+X+X+X+X+X+X+X+X+X+X+X+X+X+X+X",
"+X+X*X*X+X+X+X+X+X+X+X+X+XOX X XM.M j g A._ | ..H.4XK.U.5XL.#.) [ & V V V V V V V V P P.a v B |.+X+X+X+X+X+X+X+X+X+X+X$X+X+X+X+X",
"+X$X*X*X$X+X+X+X+X+X+X+X+XOX XB.1.n p l.z.q...| H.`.5X5X5X`.$...6 ; + o @ O O + + % % A.g d M N. X+X+X+X+X+X+X+X+X+X$X*X*X#X+X+X",
"+X$X$X*X$X+X+X+X+X+X+X+X+X X XN.N c i v.7.u.| ..G.).(.`./.H.| ..0 w > 7 _ 5 3 > > 9 = ;.c.s m M. X+X+X+X+X+X+X+X+X+X*X*X*X*X+X+X",
"+X+X*X*X*X+X+X+X+X+X+X+X+X X XM.m d g z.4 _ 5 {  .+.0 0 0 q { ( q D.O.e.d.f.u.e.9.e 4. .v.f v 1. X+X*X*X*X+X+X+X+X$X*X*X*X*X+X+X",
"+X+X*X*X&X+X+X+X+X+X+X+X+X XB.1.b i ;.} o o # 6 { / / ( ) ....3 -.3X$.a.(.].Q.h.e.7 5.4.$.-.d N B.+X+X*X*X*X*X+X+X*X*X&X*X*X+X+X",
"+X*X*X*X*X$X$X+X+X+X+X+X+X XN.N k a c.: V V + ; ( X.X.X.%.X.5 = K.8Xk.r.'.6X[.!.a.' e.a. .z.s m M. X+X+X+X+X%X@X*X*X*X+X+X*X+X+X",
"*X*X*X*X%X+X+X+X+X+X+X+X X XM.M s ,.@.O C C C @ = [ %.%.%.5 * -.5X8XD.o.(.6X[.'.f.` d.R.9.k.g c 1. XXX+X+X%X%X+X+X*X*X+X+X*X&X&X",
"*X%X+X%X+X+X+X+X+X+X+X+X XB.2.n l P.1 C G L U D X = ( ..6 * q `.8X8X3Xe Y.[.{.'.s.` f.~.a.#.c.s B |.+X+X+X*X*X+X+X*X*X+X+X*X*X+X",
"%X$X+X+X+X+X+X+X+X+X X.X XB.1.c m.A.@ F U W W U S @ ; 6 2 e /.7X7X8X8Xk.p.].{.'.d.7 g.(.h.O.D.:.M B. X+X+X*X*X*X*X*X*X+X*X*X*X&X",
"%X+X+X+X+X+X+X+X+X+X X X XM.N d C.<.+ K E ~ ~ ! U D + * 2 H.`.5X5X8X8XI.0.~.[.~.r.` h.).R.e.b.m.n M. X+X+X*X*X*X*X*X*X*X*X*X*X*X",
"+X+X+X+X+X+X+X+X+X+X.X X XB.1.d Z.=.V L W ^ ^ ~ W U D X 4 E.`.5X5X7X8X4Xt.T.].Q.O.3.T.].E.a.v.m.m M. X+X+X*X*X*X*X*X#X*X*X*X*X*X",
"+X+X+XOX+X+X%X$X+X+X+X+X XB.1.k S.w + K W ~ ^ ~ Q R H o e Q.(.4X7X4X^.8Xb.d.(.g.7 u.~.[.!.a.v.Z.n M. X+X+X*X;X*X*X*X*X#X*X*X&X*X",
"+XOX X X+X+X+X*X%X$X+X+X XB.1.v F.w + D T ~ ^ ^ ! R K + > T.Y._.7X^.K.7XJ.w.R.9.' f.].{.Q.q.b.Z.b M. X+X+X+X+X+X+X*X*X*X+X$X&X+X",
"+XOX X.XOXOX+X*X*X+X+X+X XB.1.v F.g O C T ^ ^ ^ ~ E I C X t.H._.7Xn./.7X^.7.r.7 q.T.[.[.W.7.J.Z.b M. X X+X+X+X+X+X*X*X%X*X%X$X+X",
".X.X+X+X+X+X+X%X%X+X+X+X XB.1.v Z.c.o C R ^ ^ ^ ~ W U F o 1 y.`.4Xx.4X7X4Xt.' ` f.(.{.].h.O.U.l.n M. X X+X+X+X+X+X$X%X*X*X%X%X$X",
"+X+X+X$X*X%X$X*X*X%X+X+X XB.1.b >.P.# C T ~ ^ ^ ~ E U K @ @  .)./.n.[.`./.$.7 q.j.).[.!.a.$.1Xl M N. X+X+X$X+X+X*X*X%X$X+X+X+X%X",
"+X+X+X%X*X%X*X*X%X%X+X+X XV.2.m l I.1 C U ~ ^ ^ ! T I H @ o 3 Y.n.8.8.o.e e 4.f.W.[.].j.4.v.F.k 1.B.OX+X+X%X+X$X*X*X$X+X+X+X+X+X",
"+X+X+X+X+X+X+X+X+X%X%X+X+X XM.B k A.=.+ K ! ~ ^ ! I D Z .   . > 5 ' ] 4.e.a.f.R.'.[.~.f.O.U.m.b 1.N. X X.X+X+X$X%X%X+X+X+X+X+X$X",
"+X+X+X+X+X+X+X+X+X+X@X+X+X X X2.b >.U.1 D R ! ^ ~ R I H Z @ + O _ 6.e.a.j.j.!.'.[.'.j.q.$.2Xz m 1.M.V. X X+X+X*X*X%X$X+X+X+X+X%X",
".X+X+XOXOX+X+X+XOX+X%X%X+X+X XM.M h U.;.+ K R ~ ^ ~ ! R H V V $ ' r.g.Q.~.).].[.'.R.a.o.J.J.h M 2.B.OX%X*X+X%X*X*X*X$X+X+X+X+X$X",
"OX.X.X X X X X X X+X%X*X%X+X+X XN.b l.I., C K Q ^ ^ ^ ! L G S O ' f.~.].[.[.[.).E.s.] z.2Xz b 1.M. X+X%X-X-X*X%X%X*X*X$X+X+X+X$X",
".X.X X X X X X XOX+X+X*X*X%X+X+X X2.h A.b.% S L W ~ ^ ~ Y U H $ ] h.).[.[.[.].!.h.4.$.2XC.k M 2.B. X+X%X*X%X+X+X+X$X+X+X+X+X+X+X",
"+XOX.X.X+X+X+XOX X X+X+X%X%X+X+X XB.1.l P.=.o C H R Q ~ W R L + ] h.'.[.[.].~.j.r. .U.S.h M M.}. X+X+X=X-X+X+X+X+X+X+X+X%X+X+X+X",
"%X+X+X+X+X+X+X+XOX X+X+X+X+X+X+X+X XM.N >.J.+.; V G U E W W U Z ' f.~.].).Q.g.q. .I.I.h M M.B. X.XOX+X+X+X+X$X*X*X*X+X+X$X+X+X+X",
"$X+X+X+X+X+X+X+X+X+X+XOX+X+X$X+X+X XM.2.m >.G.z.1 % C H K U I + ' i.W.!.g.u.] +.I.F.l M N. X XOX+X+X+X+X+X+X*X*X*X*X+X+X+X%X%X$X",
"+XOXOXOX+X+X+X+X+X+XOXOX+X+X+X+X+X X XN.2.M h -.G.z.; @ O C F $ ' 5.r.w.` +.A.U.m.k M M. X X X+X+X$X+X+X+X+X$X*X-X*X$X+X$X$X%X$X",
"+XOXOX+X+X+X$X$X%X%X+X+X+X+X+X+X+X+X+X XB.2.1.k g b.b.z.;.9 1 ; 4  .+.;.A.U.P.z b 1.M. X+X+X+X+X+X%X+X+X+X+X+X+X%X*X=X-X-X*X%X%X",
"%X%X+X+X$X-X;X=X*X*X$X*X*X*X%X$X+X+X+X X XB.2.1.n k g *.-.z.b.b.b.b.-.w g f h m 2.M. X X+X+X+X+X$X-X-X*X+X%X$X+X$X$X$X%X%X*X%X%X",
"*X*X%X%X%X*X;X;X*X*X%X$X*X*X*X*X*X$X+XOX X X XM.2.1.N m b k x >.:.z k k m B M.N.B. X X+X+X+X+X+X$X;X;X*X%X*X*X*X%X$X+X+X+X+X%X$X",
"*X*X%X%X*X*X%X*X-X*X%X*X*X-X-X-X*X%X$X+XOX+X+X XB.2.M.B.N.M.2.2.2.M.N.N.N.B.B.B. X X+X.X+X+X$X+X+X%X-X;X*X*X*X*X*X$X*X-X;X*X*X*X",
"-X;X=X*X-X*X*X*X*X-X*X*X-X*X-X;X;X=X*X+X+X+X+X+X XN. X X X X X|. X X X X X XV.B. X+X+X.XOX+X$X$X+X+X$X*X+X%X*X*X;X;X;X,X;X=X*X*X",
"-X;X;X*X;X*X%X%X*X-X-X*X=X=X-X;X,X<X<X*X+X+X+X+X X X+X+X+X#X+X+X+X X X+X+X.X.XOX+X+X+X+X+X+X$X%X+X+X+X+X+X*X=X-X;X>X,X,X-X=X=X*X",
"-X;X-X%X%X*X*X=X-X-X;X;X;X-X*X=X;X;X<X;X=X*X%X+X+X+X+X+X+X*X%X+X+X+X+X+X+X+X+X+X+X+X+X+X+X$X$X+X+X+X+X$X*X=X-X-X;X,X>X;X*X;X;X*X",
";X;X;X-X*X-X;X;X=X*X;X;X;X;X-X;X;X=X;X;X;X:X-X+X+X$X+X+X+X%X*X$X+X+X+X+X+X%X%X+X+X*X*X%X$X$X$X+X+X+X+X$X*X*X+X+X*X;X;X;X;X;X;X;X",
";X;X-X;X;X;X;X;X;X;X;X;X;X-X;X;X;X*X*X=X;X<X,X*X*X%X+X+X+X$X*X*X+X+X+X$X+X%X*X*X$X*X*X*X*X$X$X+X+X+X+X$X*X+X+X+X%X;X;X;X;X<X,X;X",
"<X;X*X;X,X;X-X-X-X;X;X;X;X-X;X=X*X*X*X*X;X<X;X;X;X$X+X+X+X+X$X*X*X%X%X$X%X-X;X;X*X%X%X=X*X+X$X$X%X*X$X+X+X+X+X+X*X*X*X;X<X<X,X;X",
"<X<X;X,X<X;X;X*X%X%X$X$X%X$X%X$X%X%X$X*X*X*X;X;X;X=X+X+X$X$X%X*X*X*X$X+X+X*X-X*X$X+X%X*X*X*X$X*X*X$X$X$X+X+X+X+X*X+X+X*X<X<X,X;X"
};
