/* XPM */
static char *bd73461b4298477aefb219bcaa213cf83WRcNyXm0LuuGKaS[] = {
/* columns rows colors chars-per-pixel */
"64 64 194 2 ",
"   c #020203",
".  c #090706",
"X  c #0B0906",
"o  c #070608",
"O  c #0C0B0B",
"+  c #120B07",
"@  c #110E0C",
"#  c #190E0B",
"$  c #14110C",
"%  c #1B150B",
"&  c #1F180C",
"*  c #120F10",
"=  c #151312",
"-  c #1A1514",
";  c #1A1816",
":  c #1C1B1A",
">  c #22110C",
",  c #231B0D",
"<  c #281B0E",
"1  c #2A1611",
"2  c #231B15",
"3  c #231D1B",
"4  c #311911",
"5  c #3B1D14",
"6  c #2C220E",
"7  c #31250F",
"8  c #34280F",
"9  c #2D2310",
"0  c #21201E",
"q  c #2B211D",
"w  c #322611",
"e  c #362912",
"r  c #3B2D12",
"t  c #31231E",
"y  c #3F3012",
"u  c #252322",
"i  c #2A2523",
"p  c #2C2927",
"a  c #2E2C29",
"s  c #322523",
"d  c #362A26",
"f  c #332D2B",
"g  c #3B2F2C",
"h  c #34312E",
"j  c #3E322E",
"k  c #373431",
"l  c #393633",
"z  c #3C3936",
"x  c #3E3B38",
"c  c #442216",
"v  c #4B2518",
"b  c #552A1A",
"n  c #5B2C1B",
"m  c #433314",
"M  c #483715",
"N  c #4C3A16",
"B  c #513E17",
"V  c #622F1D",
"C  c #66311E",
"Z  c #69321E",
"A  c #452D24",
"S  c #43322C",
"D  c #4A352D",
"F  c #553225",
"G  c #433532",
"H  c #473834",
"J  c #4A3A37",
"K  c #413E3B",
"L  c #4D3E3A",
"P  c #563D35",
"I  c #543C3B",
"U  c #583F3D",
"Y  c #564117",
"T  c #574218",
"R  c #584218",
"E  c #5B4523",
"W  c #45423E",
"Q  c #4F403C",
"!  c #574035",
"~  c #53423E",
"^  c #66463B",
"/  c #694A3F",
"(  c #7D4632",
")  c #695132",
"_  c #4A4642",
"`  c #4B4844",
"'  c #4E4945",
"]  c #564540",
"[  c #564843",
"{  c #5C4A44",
"}  c #534E4A",
"|  c #55514C",
" . c #59544F",
".. c #5B5651",
"X. c #5F5A55",
"o. c #664D44",
"O. c #614E48",
"+. c #65514B",
"@. c #6A554E",
"#. c #7C574A",
"$. c #6F5851",
"%. c #635E59",
"&. c #735C54",
"*. c #66615B",
"=. c #6A655E",
"-. c #7B625A",
";. c #6C6761",
":. c #6E6963",
">. c #726C66",
",. c #756F69",
"<. c #76706A",
"1. c #7B746E",
"2. c #7D7770",
"3. c #7F7971",
"4. c #865B4C",
"5. c #905E4C",
"6. c #865F50",
"7. c #91704F",
"8. c #896051",
"9. c #81675D",
"0. c #926656",
"q. c #957455",
"w. c #856A61",
"e. c #8A6E64",
"r. c #8C7067",
"t. c #8F7268",
"y. c #93756B",
"u. c #97786D",
"i. c #837C75",
"p. c #867F78",
"a. c #9C7D72",
"s. c #A07F74",
"d. c #868079",
"f. c #8B847C",
"g. c #95857B",
"h. c #AB866E",
"j. c #A38276",
"k. c #A58479",
"l. c #A9867A",
"z. c #AE8A7D",
"x. c #B48E7A",
"c. c #8D8780",
"v. c #8F8981",
"b. c #948C84",
"n. c #948C85",
"m. c #988F86",
"M. c #999087",
"N. c #979089",
"B. c #9D948C",
"V. c #9E958D",
"C. c #9F988E",
"Z. c #9F9790",
"A. c #9F9890",
"S. c #B38E80",
"D. c #A0978F",
"F. c #A0988F",
"G. c #B69184",
"H. c #BA9486",
"J. c #BC9689",
"K. c #BF988A",
"L. c #A09790",
"P. c #A19A91",
"I. c #A39B92",
"U. c #A39C93",
"Y. c #A39B94",
"T. c #A39C94",
"R. c #A59E96",
"E. c #A89F98",
"W. c #A7A097",
"Q. c #A7A098",
"!. c #A9A29A",
"~. c #ABA49C",
"^. c #C59C8B",
"/. c #C89F90",
"(. c #D0A18D",
"). c #CCA293",
"_. c #D1A696",
"`. c #DAAC95",
"'. c #D5A99A",
"]. c #DBAE9D",
"[. c #DEB09F",
"{. c #E5A98E",
"}. c #E8B29B",
"|. c #F2B89F",
" X c #DEB2A1",
".X c #E3B4A3",
"XX c #EDBBA5",
"oX c #ECBBAA",
"OX c #F3BAA3",
"+X c #F3BFAB",
"@X c #F3C1AE",
"#X c #F6C3B1",
"$X c #FAC6B3",
"%X c #FFCBB8",
/* pixels */
"~.~.!.!.R.P.P.R.Y.P.P.V.V.V.V.V.V.V.D.P.U.P.V.V.V.V.V.m.p.;.' f : O . . O O O                   O - u l } :.f.M.A.T.R.!.!.~.~.~.",
"~.~.!.Q.R.P.P.P.P.P.D.V.M.V.C.V.V.V.V.V.P.C.C.V.V.V.V.f.,.| h ; .               X % & % @         O $ 3 l  .<.f.V.P.R.!.!.!.~.!.",
"!.!.!.R.R.P.P.P.P.V.V.V.V.V.V.V.V.V.V.P.P.P.C.P.P.V.m.3.X.z -         . X     6 N Y T T B M 9 @     . O 0 z X.3.m.P.R.!.!.!.!.!.",
"!.!.Q.R.R.Y.P.D.D.V.V.D.D.V.V.V.V.C.P.P.P.P.P.P.C.M.f.;._ :     + 6 m N N m e T Y Y Y Y T R T N 6 .     @ u W :.f.V.R.!.!.!.!.!.",
"!.R.R.R.Y.P.D.F.D.V.V.F.V.V.V.V.P.P.U.U.P.P.R.P.M.b.1.| i   . w N T R T T R R T Y Y T T T T Y T T m @     = a | 1.m.T.Q.!.!.!.!.",
"R.R.R.R.Y.P.P.P.P.P.P.P.P.P.C.P.P.T.R.R.P.P.U.P.M.d.*.z O X r T T Y T T T T T T Y Y T T T T T T T R M $   . ; z %.f.A.W.!.W.!.!.",
"R.R.R.T.R.P.Y.R.R.R.P.U.!.!.U.P.P.U.U.U.U.P.P.C.m.2.} :   e T T T T T T T T T T T T T T T T T T T Y R M +   O i ' 1.M.R.W.R.!.!.",
"P.T.P.P.T.P.P.P.R.R.P.U.Q.!.R.P.V.F.P.U.R.T.P.V.v.:.h   , Y T T T T T T T T T T T T T T T T T T T T Y R r     ; z ;.b.Y.R.Q.!.!.",
"P.P.P.P.P.P.P.P.R.R.P.P.P.P.P.V.V.V.P.P.U.U.P.V.f.| O . M T Y T T T T T T T T T T T T T T T T T T T T T T <   O a X.d.V.R.!.!.!.",
"P.P.P.P.P.P.P.R.R.P.F.V.V.V.V.V.V.V.V.P.R.R.U.V.i.x   < T T T T T T T T T T T T T T T T T T T T T T T T T N X   3 ' 2.M.R.Q.!.!.",
"R.P.P.P.F.P.P.P.P.P.P.V.V.V.V.V.V.V.P.P.T.R.P.m.1.u . M T T T T T T T T T T T T T T T T T T T T T T T T T T 6   = W ,.N.T.R.Q.W.",
"R.R.P.V.V.D.D.D.P.F.D.D.V.V.V.F.P.P.P.P.R.R.P.b.*.O % T T T T T T T T T T T T T T T T T T T T T T T T T T T M . O l ;.b.R.R.R.R.",
"R.R.V.V.P.P.P.V.V.V.V.V.V.V.V.P.T.R.R.R.R.R.P.v.} . e R T T T T T B N T T T T T T T T T T T T T T T T T T T T &   a %.c.P.R.T.P.",
"P.P.D.P.P.D.V.V.V.V.D.F.F.F.P.P.P.Y.R.R.W.R.P.f.l . N T T T T Y T w O r T T T T T T T T T T T T T T T T T T R e   u | p.V.P.P.P.",
"P.V.V.P.P.P.D.V.V.P.D.V.V.V.P.P.P.P.R.R.R.R.A.p.u % T T T T Y T N - L $ m T Y T T Y Y T T T T T T T T T T T T N X ; ' 1.m.A.P.A.",
"L.V.V.P.P.P.V.V.P.P.P.D.D.V.V.P.V.P.Y.R.R.R.P.2.= 6 R Y m B T R 8 J }.&.% N T T T T T Y T T T T T T T T T T T Y % = W >.b.M.V.V.",
"M.V.V.P.P.P.V.V.P.R.P.P.P.P.P.P.P.P.R.R.R.E.P.:.O r R B % M R Y & u.|.}.G 6 T Y T w M T T T T T T T T T Y T T R 6 O x >.b.V.V.V.",
"V.C.C.U.R.P.V.V.F.P.P.P.P.P.P.P.P.P.R.R.R.R.Y.%.X M R N $ N R M q (.}.OXz.% N T T , 9 R T T Y T T T T T T N N R r X l :.b.V.D.D.",
"M.V.P.P.R.P.V.V.V.V.V.F.P.P.P.P.P.P.R.R.P.R.R.*.X N B m % B R 7 [ {.{.OX@XL 6 T R 9 $ B T T T B M T Y T R e 9 R N X f =.b.P.P.P.",
"M.V.F.F.D.P.F.V.V.V.D.P.P.V.D.P.P.L.P.P.P.P.R.*.X e , r % B T , u.OX}.+X%Xl.% B R w   m R T R m @ N T T R r & T B $ a *.f.V.P.V.",
"M.V.V.V.V.V.V.P.F.F.P.P.P.A.V.V.V.V.V.D.F.P.R.%.  X % r % T N 2 ).OX|.%X%XoXg r R 9 = , Y T R m   6 T T R m % B T % a *.f.V.V.V.",
"M.M.M.V.V.V.V.V.V.V.V.D.V.V.V.M.M.M.M.V.V.P.R.p.;   , m % Y r S oX#X+X%X%X%Xw., T 2 &.q y R R r ; - N T T M % B T , h =.f.V.D.V.",
"V.M.M.V.V.V.V.V.V.V.V.M.M.V.M.M.M.M.M.V.V.V.P.F.<.; 6 M % B 6 $.@Xx.h.`.#X%X/.2 M 2 J.-.% B R e ~ G e R T M % B R 6 l ,.b.P.P.V.",
"M.M.M.V.V.V.V.V.V.V.V.M.M.M.M.V.V.M.V.C.F.P.P.P.f.: 7 N $ N , l.XX) M E 7.`.+XH , i .X.Xd 6 R 7 &.r., T R M % B R 6 K 3.m.F.V.V.",
"m.M.M.V.V.V.V.V.M.M.V.M.M.V.V.V.V.V.V.P.P.P.U.P.d.= 7 B % r q '.S.s 2 - 6 ) `.w.  +.#X%Xl.@ e , ! h.3 N R m % B T 7 ` p.m.V.V.V.",
"M.M.V.V.V.V.V.V.M.M.M.V.V.V.V.V.V.V.V.P.U.P.P.V.2.O 6 T % $ L z.H j.'.H.J e ^.'.$.'.%X@Xq.9     6 q.~ 7 R e , r 6 % } v.M.V.V.V.",
"V.V.V.Z.V.V.V.V.V.M.M.V.V.V.V.V.V.V.V.F.F.D.V.V.p.- , T %   -.{ H.%X#X%X].L ).%X$X%X%X@X) 2 L { i 9.y.% T 6 6 w   - >.m.M.M.V.V.",
"V.D.P.P.V.V.V.M.V.M.M.M.V.V.V.V.D.P.P.P.P.V.V.V.m.x % N 2 -.y.-.%X).L w.#Xa.w.%X%X%X%X XL j.#X%X_.~ e.i r % r 7 = ..f.V.V.V.M.M.",
"V.D.P.P.D.V.B.M.M.M.V.V.V.V.V.V.V.D.P.P.P.V.M.m.b.%.@ r q _.9.G.%X+.  = ).].@.@X%X%X%Xe.e.%X'.).%X/.{ +.X @ N 6 i >.b.V.P.V.V.V.",
"V.V.D.P.V.V.V.M.M.M.V.V.V.M.V.V.V.V.D.D.V.M.b.f.i.=.; $ @ g g '.#XH     z.@X@..X%X%XoX+.[.'.i ; J.%X&.j.] $ N , h 1.m.D.P.P.V.V.",
"V.V.P.P.P.V.V.V.V.V.V.V.V.V.V.V.V.V.V.V.V.m.p.,.*. .:   = a.[ ].%XO.  * /.#X~ O.e.j.a.$.$Xu.    &.%Xs.a.'.3 N + x p.M.P.P.P.V.V.",
"V.D.P.P.Z.V.V.V.V.V.V.V.V.V.V.V.V.D.V.V.M.f.<...W z - g u ).-.).%X^.G -.#XoX] &.+.~ d &.%Xr.    @.%XG.-.J.2 w X | c.V.V.P.P.V.V.",
"V.P.P.P.P.D.D.V.V.V.V.V.V.V.V.V.V.M.M.M.b.f.;.W a 3 O G j S.y.k.%X%X+X#X%X).&.#X%X#XH.-.%X^.= o l.%XG.u s O . ; >.b.V.V.Z.P.V.V.",
"P.P.A.P.F.V.V.V.V.V.M.V.M.V.V.V.M.m.b.b.g.d.*.l ; O     o 9.^.+.@X%X%X%X%X-.a.%X%X%X'.$.#X#Xz.j.@X%Xa.e.9.    K i.N.V.V.V.P.Z.L.",
"P.F.V.C.V.V.V.M.M.M.M.V.M.M.V.V.M.m.m.m.m.2.u O           f .X@.r.#X%X%Xz.~ .X%X%X%XoXO.'.%X%X%X%X#X$./.-.~ d X.f.M.V.M.V.P.A.V.",
"F.D.V.V.V.V.V.M.M.M.M.M.M.M.M.M.m.m.M.V.V.,..               e.].L O.y.&.G K.%X%X%X%X%Xy.-.$X%X%X%XH.O..XH &.3 :.M.A.P.V.P.P.A.L.",
"F.V.V.V.V.V.V.V.V.M.m.M.M.M.m.b.m.m.M.M.M.i.=               = l..Xe.{ -._.%X+XG.oX].#X.X~ t.oX+XH.J J.H.= - f c.V.V.P.Y.P.P.P.P.",
"V.V.V.M.M.V.V.V.V.M.M.M.M.M.V.M.m.M.M.M.M.b.a                 = y.@X%X%X%X%X@X9.~ @.oX%X_.~ G J G l..XH   z i.M.V.V.V.P.P.P.P.Y.",
"V.M.M.M.M.V.F.D.V.V.V.V.V.M.V.V.V.V.V.V.V.M.'                   o ] K.@X%X%X%X@XK..X%X%X%XoXJ.G..X X{   K f.m.b.b.N.V.V.A.P.L.P.",
"M.M.b.b.M.V.V.P.F.D.V.V.M.M.M.V.M.V.M.V.V.M.*.                      * Q a._.oX$X%X%X%X%X%X%X#X.Xg.f   f 1.p.i.2.2.p.b.V.V.D.Z.V.",
"M.M.b.m.M.M.V.P.P.V.V.V.M.M.M.M.m.m.M.m.m.b.<.$                           ; g { -.y.a.a.t.-.~ 3   O k =.>.;.%.X.%.>.d.M.V.F.D.V.",
"m.m.M.V.V.V.V.F.F.V.M.V.M.m.m.m.b.m.m.b.b.b.f.p                                               = a ' X...| ' W x K  .1.m.V.F.F.D.",
"M.M.V.D.P.F.D.P.P.C.V.M.m.b.b.m.b.g.b.b.b.b.b._                                           = p z W W K z k f i u f _ >.b.M.V.V.F.",
"V.V.V.F.P.F.P.F.C.C.V.M.b.f.f.f.p.p.f.f.p.f.f...                                          @ ; 0 i i i u 0 : ; - : W >.f.M.V.V.V.",
"V.V.V.V.V.V.V.V.V.V.M.b.f.3.<.>.,.,.1.2.3.i.f.=.O                                           O = = ; ; = $ O       K 1.b.M.V.V.D.",
"V.V.V.V.V.M.M.M.M.b.f.i.>.*...| }  .%.*.:.,.1.=.=                                           .           O 2 D o.3 W d.m.M.M.V.F.",
"m.M.V.M.M.M.M.b.f.i.<.*.| W l h h k z W } ..%...;                           = *                 . - S / 6.0.4.^ # ' b.M.V.V.V.D.",
"M.m.m.b.b.m.b.f.1.=. .W h u : ; ; : 3 u a l x z =                         O 3 : O       : u   D 6.0.8./ S 2 O   O ;.V.V.V.V.V.V.",
"m.m.m.m.m.b.f.1.*.' k u ; @ O X X O O = - : 3 3 @                         O : ; O     o z p H d D 2 X       @ u ..m.V.V.V.V.V.V.",
"M.M.m.m.m.m.f.;._ f : O                 . O O O .                     o O @ s P #.P   = u e.a.    O u z | >.i.b.V.V.V.V.F.V.V.V.",
"F.V.V.V.V.m.3...h -       X > 4 4 > +                               @ g i S 0.#.P q o   @ j.{ O  .1.b.M.V.V.D.F.P.P.V.V.D.V.V.V.",
"D.V.V.M.M.f.>._ :     + 5 b C Z Z C n c %         O               = H U s @ =       .     O @ ' m.V.V.V.V.V.P.P.P.P.M.M.V.F.F.V.",
"M.M.M.M.m.p.%.u   . 4 n Z Z Z Z Z Z Z Z C v + t F ^ o           3 J U U 3 O ; u K X.>.>.| | <.m.V.D.V.V.V.V.V.P.U.P.D.V.D.D.F.D.",
"V.M.M.M.m.i._   + v C C Z Z Z Z Z Z Z Z Z Z 1 / ( 4.$           d U U H $ ..f.m.V.V.V.P.U.U.P.V.V.F.V.V.V.V.V.V.F.P.P.U.U.P.P.F.",
"F.C.V.V.m.i.x   @ 1 > 4 Z Z Z Z Z Z Z Z Z Z 4 ! ( 5.q           = I I - f f.V.D.V.V.D.P.P.V.V.V.D.U.U.P.V.F.D.V.D.D.D.F.P.P.P.F.",
"P.P.F.V.m.3.l       O 5 Z Z Z Z Z Z Z Z Z Z 5 d F A =             s 3 O :.M.V.D.V.V.V.V.V.V.D.V.D.R.R.P.F.P.P.P.F.D.V.V.V.V.F.D.",
"P.P.F.V.M.*.O   X 4 n Z Z Z Z Z Z Z Z Z Z Z 5         : | '           W m.V.V.V.V.V.V.M.V.V.P.V.V.F.U.R.P.P.P.P.P.D.P.U.R.P.P.P.",
"U.R.P.P.V.z   1 n Z Z Z Z Z Z Z Z Z Z Z Z n + = W | >.b.P.P.}     O } b.V.V.M.m.M.V.V.M.M.V.D.D.V.V.D.P.V.F.P.P.R.R.R.W.R.P.P.P.",
"R.R.R.P.C.h   4 v n V Z Z Z Z Z Z Z Z Z C 4   } b.V.P.U.R.!.V._ O } M.P.F.V.V.V.V.V.V.V.V.V.D.F.V.V.V.V.V.P.P.U.R.W.W.W.U.P.P.P.",
"U.R.U.P.C.*.;     X # b Z Z Z Z Z Z Z Z c . W f.M.V.P.F.F.R.R.V.p.M.P.P.P.P.P.D.V.D.D.V.V.V.D.V.V.V.V.D.P.P.U.U.R.W.W.R.P.R.R.P.",
"R.R.R.U.P.P.b.|     > n Z Z Z Z Z Z C 5 . i f.M.V.F.P.V.V.P.R.P.P.V.D.P.P.P.P.F.D.P.P.F.D.V.D.V.V.V.V.D.P.P.V.V.P.R.R.R.R.R.R.R.",
"R.R.U.R.R.R.!.2.  X c n C Z Z C V v >   u d.R.F.P.P.V.V.V.P.R.R.P.D.D.P.F.P.P.P.D.P.P.P.P.D.D.D.V.V.V.D.P.V.M.V.F.T.R.R.R.Q.W.R.",
"!.R.P.R.W.R.U.M.' : O X # > > > +   O x p.R.R.U.R.F.V.V.V.V.F.P.P.P.P.P.P.R.R.R.P.F.F.P.P.V.D.D.F.P.D.V.V.V.V.V.P.P.P.R.!.!.W.R.",
"!.!.R.W.Q.R.R.P.V.b.;.l = O O ; 0 z >.M.P.P.U.R.R.P.V.V.F.D.F.P.P.P.F.V.V.P.U.P.V.V.F.P.P.P.D.P.P.D.D.D.V.V.V.V.P.V.M.P.!.!.W.R."
};
