/* XPM */
static char *ecb283fea69c46bb80a826ed682debc9LU7gLTkkBxJjA5cK[] = {
/* columns rows colors chars-per-pixel */
"64 64 163 2 ",
"   c #ABA59E",
".  c #A9A39C",
"X  c #A7A19A",
"o  c #A59E97",
"O  c #A29C95",
"+  c #A29B94",
"@  c #A49D96",
"#  c #A39C95",
"$  c #A29B95",
"%  c #A09992",
"&  c #9C958D",
"*  c #9B958D",
"=  c #9D968F",
"-  c #9C968E",
";  c #9D968E",
":  c #9E9890",
">  c #9E9790",
",  c #9F9890",
"<  c #A19A92",
"1  c #A39D95",
"2  c #A09A92",
"3  c #9D978F",
"4  c #9F9991",
"5  c #9D978E",
"6  c #9E988F",
"7  c #A39D94",
"8  c #A29C94",
"9  c #A09A91",
"0  c #9F9992",
"q  c #A09A93",
"w  c #A49E96",
"e  c #A19B93",
"r  c #A19B92",
"t  c #A19B94",
"y  c #A19C95",
"u  c #A39D96",
"i  c #A6A099",
"p  c #A8A29B",
"a  c #AAA49D",
"s  c #ACA69F",
"d  c #ABA49E",
"f  c #A6A199",
"g  c #A49E97",
"h  c #9F9891",
"j  c #99928B",
"k  c #9F9990",
"l  c #9E9891",
"z  c #9A948C",
"x  c #969088",
"c  c #98928A",
"v  c #A29D95",
"b  c #A09B92",
"n  c #A59F98",
"m  c #A19A93",
"M  c #9C968D",
"N  c #979189",
"B  c #9A948B",
"V  c #9B958C",
"C  c #99938B",
"Z  c #A49D95",
"A  c #A29B93",
"S  c #A7A09A",
"D  c #9E978F",
"F  c #A49E95",
"G  c #989289",
"H  c #979188",
"J  c #969087",
"K  c #A59F97",
"L  c #A6A098",
"P  c #A09991",
"I  c #A29C93",
"U  c #A39E95",
"Y  c #99938C",
"T  c #A5A098",
"R  c #A7A199",
"E  c #A39C94",
"W  c #A8A29A",
"Q  c #A19A94",
"!  c #A09B93",
"~  c #A59E98",
"^  c #A39C96",
"/  c #A8A19A",
"(  c #A49F96",
")  c #9C958E",
"_  c #AAA49C",
"`  c #A7A19B",
"'  c #A19C94",
"]  c #908A82",
"[  c #A6A09A",
"{  c #A9A29C",
"}  c #9B958E",
"|  c #8E8880",
" . c #958F87",
".. c #A49F97",
"X. c #99928A",
"o. c #A6A097",
"O. c #A9A39A",
"+. c #9D9790",
"@. c #9C968F",
"#. c #A39E96",
"$. c #9B948D",
"%. c #A19C93",
"&. c #A59F96",
"*. c #A69F98",
"=. c #9A938B",
"-. c #A09993",
";. c #9B948C",
":. c #9F9A91",
">. c #9F9892",
",. c #A49D97",
"<. c #9E9791",
"1. c #A59E96",
"2. c #A7A099",
"3. c #9A938C",
"4. c #989189",
"5. c #99938A",
"6. c #9A938A",
"7. c #979089",
"8. c #A69F99",
"9. c #9E9991",
"0. c #979088",
"q. c #9A948D",
"w. c #9D9690",
"e. c #9F9A92",
"r. c #958E87",
"t. c #928B84",
"y. c #918A83",
"u. c #9F9A93",
"i. c #968F88",
"p. c #968F87",
"a. c #928C84",
"s. c #98918A",
"d. c #A09A94",
"f. c #9D9791",
"g. c #9F9993",
"h. c #948D85",
"j. c #948D86",
"k. c #A29C96",
"l. c #A19B95",
"z. c #958E86",
"x. c #A09B94",
"c. c #A29B96",
"v. c #938C84",
"b. c #918A82",
"n. c #8B847D",
"m. c #908981",
"M. c #928B83",
"N. c #928A83",
"B. c #938C85",
"V. c #8F8880",
"C. c #958D86",
"Z. c #989089",
"A. c #978F88",
"S. c #989288",
"D. c #999289",
"F. c #989188",
"G. c #958E85",
"H. c #979087",
"J. c #9E978E",
"K. c #9B948B",
"L. c #9C948D",
"P. c #A69F97",
"I. c white",
/* pixels */
"    . X o O + @ # $ % & * = - ; : > , < 1 2 3 3 & 3 4 4 3 : 5 6 2 7 8 9 4 4 4 4 2 4 0 2 2 q 8 w 1 e 2 1 8 4 r t y u i p a   s   ",
"  d p f g t 2 # # % h ; j 3 k 3 ; ; ; : e 4 : l : 4 2 2 : : z x c : 9 : 5 : 4 e 8 O 1 v 1 1 1 w 1 2 : 8 1 2 b e t g i p . a a a ",
"a . p i n O 0 % m > 3 ; ; : : - M - : 0 e 2 : 2 t t 1 8 2 e : N N B V 3 * C : e 8 1 w w w 1 # @ Z A h 2 1 8 e e 1 n S X . . . . ",
". p X n n O % h , D ; , , - 5 : : 4 2 e e e 8 e e 8 w 1 8 F e 5 c G H J N J - 7 K L K K o + A w @ Z % 2 8 9 2 w K n X p . . . . ",
"X i i g O m h P > D D P > 3 : : q 8 1 8 e I U I : 2 1 1 8 8 r e 3 z Y C 3 : 9 F T R n K w A < E m 4 P h P 9 4 1 K K X p W p p . ",
"n n n g O q Q # + E m % < 2 k e O u g w e e 1 w e e 1 g e 4 9 b 4 0 q q 4 e w L L w 8 1 + P > 2 4 = D 2 r 2 4 ! 8 K R p X i p . ",
"@ ~ g u g O ^ u n g $ 1 / p 1 e O 1 1 1 v 8 e e e 1 1 e 0 9 r e r 2 1 ( 8 7 K L R w r A D ) P < e 2 3 4 8 e q e t g p p R n p _ ",
"# u O $ u t 2 + g g $ 1 X p g 2 : 4 e 1 w 1 1 8 e e 8 e 4 2 I I r e r 8 I 1 g w w 1 r : & : E 1 w w 2 : 3 3 4 e u n X ` X X p . ",
"# t % % t + $ $ u # m q t Q 0 > ) = % 8 1 1 8 1 1 t 8 ' q r 8 1 r : 6 k I 1 7 8 8 4 : 2 e 8 8 K K F 8 e e * ] z w n g n [ p p { ",
"8 m 2 q % m # g g # 4 = D > 3 3 = = h e w K g K n n w 1 q 4 r 8 8 4 , I w 1 7 F 1 4 b e r r e K p W L K 8 } |  .O ..g g n X X X ",
"Z e m % 4 < % + E E m = ; ) ; 3 3 h e 8 u K w w L i w 1 2 : , 2 2 D D < w 1 8 U e r e k z X.z k o.O.R L L u - +.w g n n i i i i ",
"n u 0 @.> h h h % h , , D & ; P q e E # w n K #.8 u w 1 2 > D ; $.$.) , m 2 , e %.I 9 M C z 6 I &.w g n L u q e w i X . p i n g ",
"n u : 3 % 2 % > = = = : > D D e # u g o *.R W X g w g O 2 , & $.) & D 2 2 $.=.; , : 6 3 2 F K F o.g w w K w 8 e O g X p X i u t ",
"Q % h % < , > > 3 : h 4 P P % -.O ^ n i i X p p R n g O 2 > = = ; & ; 8 I ;.=.;.& ; D : :.I 7 w K n u 8 w K w 1 e e w K K u O q ",
"+ D : e O < h > = P h : > 3 >.-.Q O ,.n i S X X X i L g 0 > l % 0 l : 4 : & & ;.; P D 3 - 6 k 9 r 1 w w K n o.K 8 e 2 e e e q 0 ",
"0 3 3 q 8 t , > m # m h <.<.<.>.l Q ^ o *.S p p p R n w e t O # 1 O t q 0 +.* = D ) ; 3 - z & r 8 t u w K L K w 8 2 3 - = = l : ",
"c 5 : e t e & ) A 1.+ t + Q Q Q >.t @ o i p { p p / 2.K u u g g w 1 u u O q +.& ;.X.X.=.X.X.$.3 4 q 8 u w L L K w w 2 + e h 3 3 ",
"* k 4 1 K e ) ) P + m m Q Q Q O t $ ,.,.,.i p p p W R *.o n n K 1 w n g g O m : & =.=.;.=.;., + 1 1 1 w K n n L K K @ w # < 4 , ",
"c - 2 I F + 3 ) = = D h % % % t -.>.u g # g X p . p X n n *.*.i n n n n n w O % - ; ) ; 3.& < w g g n n K K K K u + 1 E Z Z m % ",
"B 3 4 4 , 0 4 D = = , < 2 , : 0 % >.+ E + # i / W W L n n i o o n *.*.n n o u t > D P D j c ; P m 8 g K L W K 1 + # Z A + 8 % : ",
"B M M * & = l 0 4 4 < A e 0 > - = = > h 4 e @ o *.n @ g n i o @ @ K L i i n g 8 > = 4 D & ;.D h 8 w w n L R n 8 e E &.F % h : = ",
"z 4.c ;.& & 3 : l l : h : 3 & C j C =.* = e 1.K 1.+ O u @ w g 1.@ o n i n n w O h ; ; , h D > , I 1 w K L R R K @ K K &.A < 4 +.",
"- 3.j ;.& 3 D 3 3 - * 3.=.;.=.5.C c X.;.) : A 1.1 9 e 8 E # w K o o *.n n K w O h ) = h % < A + t e 1 w K L K 1 Z E Z R w 1 2 > ",
"=.C =.) = D ; ; M & ;.C =.6.=.& V z 5 4 4 < 8 w E r t 8 8 7 # u o *.i i n n u t % D - > 2 1 o K 1 8 8 1 1 # m 0 , , % E 8 A : & ",
"7.4.3.) & $.;.;.=.=.;.=.C ;.$.* * - : 2 e e 1 1 + 2 2 e e r # u o L i 8.n g u e m P : 4 2 e m m < 2 2 q % P % 3 z & ; ; > > ; ;.",
"Y Y $.) * $.$.$.j X.C & & ) - * 3 3 : e 1 A % , 3 V - 4 P m u g n n n n ..u 8 2 m A m + # # e 4 , h q 4 } * = * C =.;.;.& * ) * ",
"$.= > : D > ; - $.C j ;.$.) ; M ; D : , 4 h & ; ;.;.;.) 4 t l m g n n g u O m 4 m E # # # u O 8 e 4 4 : - 3 : ; & ; = ) z z $.;.",
"= h m m : ; ;.z ;.z z z $.z & D h % A + 2 , D 4 - =.7.j 3 l z 3 1 K w O t 8 e 4 % + E 8 q e t 8 t q 4 : z z M * ;.; > l : = 3.c ",
"> h % < h ; * z z 3.$.) $.z $.= = h < A A 4 , D ;.C N j & ) @.9.8 1 t q e t e 0 2 8 g w e 2 e 1 8 2 4 @.c z * - - = h q q l & $.",
"+.l h % h > ) z z 3.- 3 z z ) 3 3 > , h > > = k - 0.3.=.3.$.) 4 8 O 8 e q e 8 8 t e 8 w K w w w g 8 4 : - - } * 3 > 0 m q 0 ) = ",
"@.> >.0 >.: = q.* * ) = q.$.@.3 D > D ; > = ) , & =.;.4.3.3 4 e 1 w w 8 8 1 1 F 1 m t ..L L n o K K w w e : } } 3 l q Q t % @.= ",
"w.h h 0 h : D - @.} $.- } $.- ; > , ) $.& ; = D ; = - j = P + 8 + < e m m 8 # E @ 8 e e w n K K K n w 8 e 2 0 3 : q Q >.-.q w.} ",
"l 0 0 2 4 h h - ) * $.- $.$.= 3 $.=.j 4.7.$.= & & = * =.) ; : q m % P m + m , h % m % < e # 1 w K K O : - 3 4 l q q e.<.l 0 <.@.",
"% % 4 0 4 : > ) $.q.q.& z $.> 3 =.r.t.y.t.=.3 $.=.$.3.=.& & = h h : P + O % } @.3 : h , = D % m 8 1 2 : : 0 4 l l u.0 +.<.q >.>.",
"2 4 > h > = ; z Y C C $.=.C ) = C 0.i.p.7.= , = $.;.c 7.3.=.& 3 ) > % 2 t t = C $.= D 4.a.3.P < q 1 e 3 : 2 0 +.+.0 0 q.+.t 0 <.",
"h , = > = & ) z j j N j j X.3.j 0.7.3.- ) > % P D ;.s.p.s.4.4.;.) D h h < q = s.7.$.) * $.= h e e 8 q 4 4 t t u.0 t d.f.g.t 0 >.",
"h : - ) & & ) & $.=.0.N s.4.7.h.j.7.X.=.3.; e , ) X.s.0.=.& ; , P < % % % > h - s.= % 2 < : 3 3 , e e l l q t t t u.t k.O l.-.d.",
"3 = $.C C & = D ; =.4.X.X.=.$.4.i.4.X.=.;.; : * 4.z.i.0.4.3.> A # e % h > ) = 4 0 4 % 4 > $.= < A 8 e : 4 e O x.q t 0 q t l.l.c.",
"$.3.X.7.X.- P h ; ; & & & j $.) & & = : , 3 & X.r.p.x i.p.3.> P 4 l : h : ; ) = = ) * - ; = , A 2 2 :.3 k 8 u t q $ t 0 0 g.>.0 ",
"=.4.v.h.j & : P P , & ;.=.s.j z 3.;.3.$.$.C 4.;.X.z.4.N X.D % , ) ;.) = > h h $.s.s.j ) 3 ) - 4 D 4 4 3 3 3 6 3 - 2 e 4 : h h <.",
"j 4.h.0.7.4.; r I : ; M =.X.X.4.p.i.4.r.0.z.h.4.X.0.X.0.i.3.& 4.J G =.& = h > ;.X.7.C ; & D ; , , D - z z V C C 5 2 2 P % P h <.",
"0.0.X.D > ;.& 9 9 M B V =.i.7.4.i.0.X.z.z.r.p.i.p.X.=.X.4.4.4.p.H X.3.;.& ) $.3.=.0.X.X.=.= & ;.) 5 - B V =.3.* ; , P % < P P h ",
"X.=.& , < P h r r k * z X.0.p.X.0.h.h.v.v.z.0.0.0.0.s.X.=.4.c =.- ) * $.C j C X.X.X.X.c s.;.; ; ; M : : k k ;.D e 2 4 , ; D D P ",
"; & ; P % P < 9 k :.3 - =.4.0.7.z.v.v.b.n.m.h.M.N.b.B.4.X.=.=.* = = = & * ) 3 $.z $.& ;.;.4.j ;.$.& P 6 - 4 D , I r , ; & ; ) D ",
";.; & D D 5 D M - 9 9 4 D X.4.0.4.4.=.p.b.V.h.v.v.h.B.z.4.& ;.;.;.; = & $.= P : ; & & 3.j =.& ;.0.0.=.s.4.;.; , 4 , 3 D & ; ; , ",
";.; & & - =.=.=.M 3 k : = $.;.4.p.X.;.X.7.0.=.4.z.j.p.C.4.=.X.=.;.& 3.X.X.& ; ) 3.j =.z =.7.4.4.B.M.h.0.0.B D < r P , D $.X.) P ",
"0.4.;.Z.4.4.X.c H V k 2 h D ;.=.0.0.0.7.=.) , & A.z.0.0.4.=.;.4.X.;.X.X.4.4.3.$.;.;.;.;.X.r.p.h.y.z.;.r r 3 P r I r , D ; & & > ",
"4.i.0.h.j. .x x x * k e < , 4 7 A ; & 0.4.3.X.0.0.X.;.S.X.;.$.) & ;.=.$.3.s.s.s.X.4.;.;.4.r.h.v.h.0.;.2 1 7 A P P A < , & & ; 3 ",
"0.0.p.z.z.z.x x G C 3 b 8 8 7 I e A D ;.;.0.B.z.0.D.F.G.H.=.& ; ; ; - D ) X.z.j.i.p.p.; =.0.h.B.p.p.;.9 I 2 ; ;.& , D ; > J.; ; ",
"j 4.0.0.s.X.5.N  .J M 3 < A e : 2 < A P P D 0.z.0.F.F.G =.$.; = & 3.& < P $.z.v.m.b.z.=.;.K.=.=.=.$.P 7 7 ; & z & ) * = P : - - ",
"P ; ;.;.= & ;.c N x 5.;.D D P < e , 9 8 E E : X.4.& ; & & = ; & ) ; P E + ) p.p.t.B.4.& ; & $.& =.=.;.;.& ) h P A m ) 3 , D M - ",
", D ;.=.& & ;.; - V c 4.X.& P < 4 M z - < A & 4.=., D ;.; ; ; & ; , A # + P 3.4.7.x 4.D A : ;.; D ; ; ) L.D 2 A 8 2 3.=.= 4 k , ",
"X.4.0.D.=.=.& > D & 7.4.=.& > D ; ; ; & = ; = ) 4.=.& D > ; & ;.- < + @ 1.E > & ) =.& 4 r P ;.& = 4 D $.; ; , < Z A , D , , k , ",
";.X.D.X.& ; , h P P ;.; D > : h P , % P ; & D D 3.=.=.; , D D = h 8 # # 1.@ + h D ; = I 8 E 9 , , P ; ;.= D $.& P + E Z Z A % h ",
", , > D , Z &.8 m < , % 2 2 4 P h D , & =.& ;.=.;.& & > E E 8 m m + # # A A E P = D h % 2 = D D , Z Z < > P , D h h h P < 8 < P ",
"< m P P h m w w 8 < P h 2 A m < < P , & ;.& D ;.7.=.> % # Z w @ 1 E @ 1.+ h % h ) ; > D ; = , ) h w w + h < A m P , = & ;.= P , ",
"< < P P 2 < P A F 8 2 m E 1 1 1 8 2 P , * , Z A j i.> E E + + @ K *.o # + P ; ;.* & ; =.;.D P ; ) P 1 Z + A m % 2 , 2 1 K A < 2 ",
"1 w E 8 1 A % e 8 1 A e 1 8 F K F 7 m > & D P D s.z.; # 1.@ e A K w @ 8 P > X.p.=.; ; s.X.) h , ;.& , % > 4 < A o w P.R w E A m ",
"( K w 8 w 8 , 4 A 1 1 A E E 1 P.R _ X # , = : 3 3.& + Z K . *.1 # A m A < D ; & ) = = & = D h P > > ; = = < 8 1 L L R R 1 E 8 m ",
"F &.1 2 k 2 2 # Z Z o o @ 1 A # @ K X ~ # + m D ; , A P 4 K K 1 m % m m e e % h = , h = = : , D D > ; h e # 1 1 L R i K + 1 @ O ",
"w o.L 1 e 1 L *.# + w o w o @ @ @ ^ @ g n R w ; D P % ; 3 8 w 8 h > h % 2 m q 4 h A + P h : , > ; ;.) h A A = ) + n n g u g L K ",
"L w 1 L K K i L w @ g o w w n n K 8 + E n . X < e < D ;.;.% @ @ % : h % 4 2 + m h m + + % , , 3 ) > D h m D =.;.4 1 n n L R R L ",
"p n O n R w 1 1 1 @ u @ u w g 1 8 A A 8 w p i Z @ 4 ;.) $.3 P + < 2 % % % w L o + h P # e : , , P % h > > ; $.3 e 8 8 n p p R L ",
". p *.R X n w 8 P h , , h h P P P 4 , P m + Z K 1.E ; ; h h 4 < m + h D > m 1 + l 3 h A 8 2 h % % h h > ; & ; > t 3 X.t p p R K "
};
