/* XPM */
static char *_5694cd507b84760a12d0769b2a0f3c6UXViidGIsaNMF6pR[] = {
/* columns rows colors chars-per-pixel */
"64 64 154 2 ",
"   c #4D443E",
".  c #464445",
"X  c #4A4645",
"o  c #45464D",
"O  c #45494F",
"+  c #4B4A4D",
"@  c #534A47",
"#  c #5D4D40",
"$  c #524E4D",
"%  c #5A4F4A",
"&  c #5E5045",
"*  c #5B524D",
"=  c #464A54",
"-  c #4A4D54",
";  c #464E5A",
":  c #494E59",
">  c #4D5156",
",  c #4D525C",
"<  c #545255",
"1  c #5B5653",
"2  c #5E5954",
"3  c #52555C",
"4  c #59575A",
"5  c #56595E",
"6  c #5C595C",
"7  c #624F40",
"8  c #635143",
"9  c #6A5545",
"0  c #6E5846",
"q  c #64554B",
"w  c #67594D",
"e  c #6D5A4B",
"r  c #715946",
"t  c #785E47",
"y  c #735D4C",
"u  c #795E49",
"i  c #615752",
"p  c #635B55",
"a  c #6B5D54",
"s  c #635E59",
"d  c #685E5A",
"f  c #725F52",
"g  c #76604E",
"h  c #7C624D",
"j  c #6D6057",
"k  c #65615C",
"l  c #6A635E",
"z  c #746153",
"x  c #7C6553",
"c  c #7E6855",
"v  c #74655A",
"b  c #796759",
"n  c #7A6A5D",
"m  c #4D5563",
"M  c #4F5966",
"N  c #4F5768",
"B  c #515762",
"V  c #535A65",
"C  c #5A5C64",
"Z  c #545C6B",
"A  c #595F6B",
"S  c #565F71",
"D  c #585F71",
"F  c #615E62",
"G  c #5E6166",
"H  c #56606E",
"J  c #5A616D",
"K  c #566172",
"L  c #5A6373",
"P  c #5F6877",
"I  c #5C6679",
"U  c #5E687B",
"Y  c #636164",
"T  c #6C6661",
"R  c #6F6963",
"E  c #64656C",
"W  c #69686A",
"Q  c #726C65",
"!  c #746E68",
"~  c #76716A",
"^  c #7A746D",
"/  c #616673",
"(  c #606877",
")  c #6A6C70",
"_  c #606779",
"`  c #61697B",
"'  c #7D7770",
"]  c #7F7971",
"[  c #83654D",
"{  c #86694F",
"}  c #8B6A4E",
"|  c #826651",
" . c #846953",
".. c #8C6D53",
"X. c #836D5A",
"o. c #8B6F58",
"O. c #916F54",
"+. c #8E7056",
"@. c #8D715A",
"#. c #947255",
"$. c #9A7556",
"%. c #9B7957",
"&. c #957459",
"*. c #997659",
"=. c #9D7A5B",
"-. c #A37D5D",
";. c #817A72",
":. c #817B74",
">. c #817C74",
",. c #847D76",
"<. c #867F78",
"1. c #A37E61",
"2. c #A5815E",
"3. c #AA825E",
"4. c #868077",
"5. c #868079",
"6. c #888179",
"7. c #8A837B",
"8. c #8B847B",
"9. c #8B847C",
"0. c #8E877F",
"q. c #8F887F",
"w. c #90877F",
"e. c #A68161",
"r. c #AB8462",
"t. c #AE8865",
"y. c #B18762",
"u. c #B38A65",
"i. c #B88F65",
"p. c #B48D69",
"a. c #B98F68",
"s. c #BB9267",
"d. c #BC926A",
"f. c #C4996F",
"g. c #8E8780",
"h. c #8F8981",
"j. c #938B83",
"k. c #958D85",
"l. c #978F87",
"z. c #988F87",
"x. c #979087",
"c. c #989087",
"v. c #979088",
"b. c #9B928A",
"n. c #9C938B",
"m. c #9B958B",
"M. c #9C938C",
"N. c #9B958C",
"B. c #9D958C",
"V. c #9F988F",
"C. c #9F9990",
"Z. c #A0978F",
"A. c #A09790",
"S. c #A19A91",
/* pixels */
"S.A.M.l.l.j.j.0.0.0.0.0.0.0.0.h.0.9.6.8.6.6.9.9.0.9.6.9.6.6.9.0.0.h.h.0.9.9.0.9.9.9.0.0.9.0.0.0.0.0.0.j.j.j.h.h.j.l.b.b.b.B.C.S.",
"B.B.b.l.0.0.9.6.,.>.;.;.;.;.:.>.>.;.:.:.;.;.>.>.>.>.;.;.] ^ ^ ^ ;.;.>.:.;.;.;.;.>.>.>.,.,.,.,.>.<.<.,.<.5.5.5.<.6.h.j.l.b.m.B.C.",
"n.b.l.j.6.5.>.' ~ ! Q Q Q Q ! ! ! Q Q ! ! ! ! ~ ~ ! Q ! ! Q T T R Q Q Q Q Q R Q ! ! ~ ~ ~ ~ ~ ~ ~ ~ ~ ~ ~ ^ ^ ^ ' >.9.j.l.b.B.V.",
"b.l.j.0.5.' ! R l k s s s s s s s s s s s s s s k s s k s s p 2 2 2 2 1 2 2 1 2 s s k k k k k k k s s k k k l R Q ~ >.6.h.l.N.S.",
"b.l.j.6.] W G C 5 5 5 5 5 5 5 5 5 5 5 5 5 5 C C C 5 5 3 5 5 C C V V V V C V C 5 V C C C 5 C C 5 C C C A C V V C G E ) ;.6.j.b.V.",
"B.l.0.,.^ G B - B B Z B B Z Z B B B B Z Z Z V D K Z Z Z Z V V K Z Z B Z L L K K K K K K K P I I I I U U I L L L B K L ^ ,.0.l.m.",
"B.l.0.:.~ G , = : m B , , , B B m m B Z Z Z B Z Z Z Z K I B Z A A V : V L K Z H K K K K K L P P I I P K K K D Z : Z J ! ] 9.j.b.",
"B.l.6.' Q 5 = V ; V V + g h g y e y q q & e g x r   m K V Z V B B 3 B : B m @ y z z e y z y y e z f g # . B B , B 3 V T ^ 5.j.b.",
"b.j.<.^ l C m V V L L K b 3.r.-.=.e.o.&.{ &.2.y...5 I P K H Z Z L Z K V K D C  .-.r.$.-.r.=.=.$.r.-.=.q 3 Z B B B m Z k ! ~ ,.l.",
"b.j.>.! s C A V V I L L K v 2.2.=.1.&.=.{ &.3.+.s K P H H K P ( ` P K Z Z Z Z C c -.=.#.-.=.=.#.r.=.f V D V 3 B Z L Z k Q ! ;.j.",
"b.j.>.Q p 5 Z , - H L L I P v $...&.&.=. .&...4 Z L K Z 3 V P I U L B B Z V Z Z C | #.$.-.=.=...-.z V D B , B , , K Z k ~ ;.9.l.",
"l.0.:.Q p 3 Z 3 8 1 H Z H I K p [ &.&.-.{ h 4 M Z J L J e C I L I I C y C K Z B V C r =.r.-.=.} z 5 Z B - , F e 3 M B k ~ >.h.v.",
"j.9.;.Q 2 3 Z 3 y y 4 Z Z H L Z f &.&.-.r 3 M M B K L c ..F I L U I C &. .A D : , Z V h -.1.*.q V V B , , C &.#.3 m 3 s ~ ,.h.x.",
"l.0.:.Q 2 3 B - y  .y 4 Z Z K L J a { | 4 V M m m A b -...F I I P L G *.-.X.V m = B V 5 h $.z , V B , , 4 +.u.#.3 B 5 s ~ 5.j.v.",
"l.0.;.Q 2 < m - e .. .r 4 K K K L V % 5 Z V Z m , f e.r...F ` ` ` L C $.-.-.y V B B m m 4 q 5 V B , m 3  .y.u.#.3 Z B s ~ 5.j.b.",
"b.j.>.Q 2 3 Z > e | | { [ 5 K K L S M Z Z Z Z V w #.u.r.&.F ` ` I L 5 #.-.3.%.X.C V m ; m V V m , B 5 9 =.u.y.#.3 Z V s ~ 5.j.b.",
"b.j.,.! s 3 Z - e  ...[ =.h 5 Z K K Z M L K B b =.-.d.r.#.6 I K L K 5 #.1.r.-.3.c V V B B m , m Z 5 h [ =.y.3.{ 3 Z V s ~ 5.j.b.",
"b.j.>.Q p 5 H > e ..O.{ -.#.[ 4 D L K K L Z f -.-.-.d.t.$.4 I K Z Z 5 O.t.r.-.a.-.y V Z J B m B 3 y =...=.y.3.[ 3 K Z s ~ 5.j.N.",
"j.0.;.Q p 3 B > r ..&...-.#.{ 4 K L K M K V z r.-.=.u.u.&.4 L K Z K 5 #.r.2.-.a.-.y V Z V B Z V 3 h -.#.e.i.r.O.3 K Z s ~ 5.j.b.",
"j.0.;.Q p , M - 0 O.*...-.| 6 Z K L M Z K Z V X.$.$.u.p.*.4 L L L L C #.=.2.-.u...C Z V , A Z B V 4  ...-.u.y...3 Z Z k ^ 5.j.b.",
"l.0.>.! s 5 Z - y &.&.....6 H Z L K M S Z H Z V e #.y.r.$.6 K K L H 5 ..-.y.-.@.F A V , V L Z B B B 4 0 *.r.r.#.3 M B k ^ 5.j.v.",
"l.0.;.Q 2 3 B - y *.&.u 2 H K K L Z 2 V Z Z V m - h 3.3.O.5 K K L H 4  .r.t.h C Z Z V B C i C A V 3 B < | 3.-...3 V B k ^ 6.l.b.",
"j.6.] R 2 3 B - z =. .1 Z Z K L K d $.x 3 Z V m m V  .3.O.6 K K I H 4  .r.+.C V , V J C X.*.v , Z V 3 B 6 #.u.#.3 Z B s ^ 5.j.b.",
"j.6.' R 2 3 Z > z  .2 B B Z L Z a *.e.-.9 3 M M m V C | ..6 K K L V < [ ..E _ B V P J @.a.p.-.w A A B 3 B s =...3 K V s ~ >.g.l.",
"j.6.' R 2 5 J 3 9 2 V m M L K p } t.r.r.[ g 5 M V V Z V 9 4 Z K L B - 9 Y I J A L / x u.f.d.t.+.b A K V 3 B Y r 3 K V p Q >.0.j.",
"w.6.^ Q 2 5 L , O Z L Z K K d $.$.y.u.r.{ *...5 B Z V m - - Z Z L B O , K A J P / X.3.d.f.d.t.=.e.z A K V 3 Z 3 , K V 2 Q ;.9.j.",
"j.6.^ R 2 5 Z B Z I L L K i ..=.#.y.y.r...*.y. .3 V Z V m m Z Z L B , B B Z K / X.i.y.d.f.d.t.*.t.-.a A L V B m B K V 2 Q ;.0.j.",
"j.6.' R 2 3 Z , Z L L K d ....} $.r.r.2. .=.i.y.h , K K M V D Z K Z m m Z K J X.t.f.i.d.d.u.r.*.r.1.&.q V Z V B V L V 2 R ] 6.j.",
"j.6.' Q 2 3 3 , m Z Z o 9 h 0 0 y [ h h 8 y .. .r   m V m m V B V 3 m , V V @ h ..&.+.+.+. .| r | g g 7 X B B : B V B 1 R ] 9.j.",
"j.6.;.Q 2 - o m V B m , B B B 3 , , , > , B Z B B , , , , B , : m ; Z K L H B V 3 B A J G G G V V V V V Z Z B , Z : , 2 Q ] 6.j.",
"j.6.] Q 2 > m , m Z Z Z Z K K L K K Z Z H I L H K Z B B B - B m Z Z V L ` P Z V J G J G H J K K K P L P I P K , , m , 2 Q ] 6.j.",
"j.6.' Q 2 3 K m V K Z Z K L K K K K K K L L L L K Z Z B V : V V K K m K P P K Z J Z J J J V J K I P K K K K J M ; B 3 s Q >.0.j.",
"j.6.] Q 2 < Z V Z Z Z V K K K V M V Z K P P P L K Z B B Z V B m V B V Z K H H H Z H H J J Z K L K K L P I L K K A J V 2 Q >.0.l.",
"j.6.' Q 2 - , o B B B Z K D Z Z V M Z K K K Z Z H Z M V V - , B M m = B B B B Z Z H Z Z J L I I I I I I I L K Z , K V 2 Q >.0.l.",
"j.6.^ R 2 + - : ; m m = * i 2 * 2 p 2 p * i p p 2 X , m , ; , : , , ; = m , + i i p 2 i d d p 2 d i 2 $ o m V m Z C 3 2 ! >.0.j.",
"j.6.^ R 2 > = , Z I L B y $.*.#.$.-.=.2.#.-.r.3.[ < m , m m , m m ; , : Z L 5 } -.2.$.-.r.3.=.#.e.-.*.9 3 Z Z Z K B V 2 ! >.h.l.",
"j.6.~ l 2 3 m , D K L I C z -.2.=.t.t.t.-.t.p.=.s Z m m B V Z Z Z B m , B D I F #.r.-.r.u.t.e.*.t.e.X.C Z A A A P ` J s ! >.h.v.",
"j.6.^ T 2 3 B ; V L Z I I C  .=.-.t.t.t.2.u.=.T Z Z Z Z m m Z Z Z V , m B B I I Y &.-.r.u.t.e.&.e. .4 V B B V 3 V ` J s ! <.h.l.",
"j.9.' Q 2 3 B , % J Z Z I I G x $.r.t.r.=.-.T m m m Z V * 3 D Z Z Z 3 * V B V I I T ..r.p.t.r.#. .4 B 3 3 B 5 @ m I J s ! <.h.l.",
"l.0.' R 2 3 B 3 h c J K J I I C  .r.p.r. .T V ; m V Z a O.F D B V K C [ a V Z K L I 4 *.p.u.r.r 5 V V V A V z | J ` G 2 Q ;.0.j.",
"l.9.] Q 2 5 Z 3 | -.b L K Z P L Y o.u.*.2 Z Z V Z V p *.-.C Z B B L 5 #.-.v Z Z K L K s *.t.@.4 Z Z A A C f =.o.J ` G 2 R ^ 6.j.",
"j.6.^ R 2 5 A 5 x r.e.a J L A P ` E  .l V Z Z Z V p #.3.-.6 Z Z Z K V #.u.-.i V Z H K K s h s Z V Z A C z &.1. .G I A 2 R ' 6.j.",
"l.9.] R 2 5 Z 3 X.t.u.+.b J J J ` U Z V B B Z B * } r.-.-.6 Z K Z Z V #.r.t.#.v C G J I P V B V A J C w *.=.1.X.J I J s Q ] 6.l.",
"l.0.;.Q 2 V A B X.t.p.&.#.z G L L I K B m m m i u #.r.3.-.6 K L K K 5 O.r.r.$.3.j Z Z J ` P Z A A V z #.r.e.e.c A I J 2 Q ;.0.l.",
"l.q.:.Q 2 5 Z V x p.p.*.-.*.y G P K B m m m i #.} #.r.r.=.< Z L K K 5 ..r.e.#.s.-.a V J L Z Z A V a =.$.-.t.r.x V I A 2 Q ;.0.l.",
"j.0.:.Q 2 V V 3 X.p.p.=.r.1...4 L Z V Z Z B h -.#.$.r.-.#.$ V K V Z 5 #.y.r.$.d.r...C J A V V A 5 ..e.O.-.y.t.x A I A 2 R ;.0.x.",
"j.0.>.Q 2 V B 3 c t.p.=.u.$.i B Z Z Z M Z I C ..$.%.r.*. .< M K K K 5 *.u.r.*.i.#.k A Z A J A I I d #...-.u.t.x J U L s Q :.h.x.",
"j.0.:.Q s V B ,  .p.p.-.2.j Z Z Z D D V B L I F [ %.3.*.h 4 Z K L H 4 *.r.e.=.=.s A Z A K K K I I L s h -.a.r.x V I J s ! ,.0.l.",
"q.6.;.Q s 5 B 3 c p.p.#.a J K Z D Z 3 Z B B Z D 4 ..y.e.[ < K K L H 5 *.y.r.{ l Z A K P J 4 B K L L L 2 &.d.t.x 3 I J s Q ;.6.j.",
"8.6.] Q 2 5 V 3 x p.r.a Z K Z K D 4 r a Z m = m Z 6 #.-.| < Z H K Z 5 *.y.$.s A Z K P J n #.a Z L L L L l 2.r.| V L A s Q ;.6.j.",
"0.4.^ R 2 V V < x e.v A L K D Z 6  .....q Z , - m V 6  . .< Z Z Z Z 5 $.*.T P D K I J v r.u.-.i Z P K K K v &.X.A L A 2 Q :.0.l.",
"j.6.^ T 2 V B > y v L I P K K 4 { =...#.} a Z B , Z K 6 y 4 K B B D C [ T ` P I ` L p 2.d.y.u...s J K H K L s g G K A 2 Q >.j.b.",
"j.6.^ T 2 5 B - X J ` I I L s [ $.2.&.=.$...a D m , Z L < > K B Z L , 1 ` I I I A v %.s.d.u.i.2.=.s Z K H L K < Z K A s Q :.0.z.",
"l.0.] Q s V B , m K P P L F +.=.=.e.*.-.$.=.&.v m ; B D K V K Z Z L V D I I ` L j 2.r.i.d.u.u.2.i.*.2 Z K Z L L D K Z s ! ;.6.j.",
"z.j.>.~ k C B , V L P P F  .r.*.=.e.1.e.#.2.1.2.v m B , Z D K Z D L D L ` ` L a =.p.t.r.i.u.r.-.p.-.h 1 Z K Z L D Z V k ~ ,.0.l.",
"b.j.,.~ l C V , B L L 4 u ..#.[ } #.&.$.t #...*.} $ Z , - m K Z D L Z V L J $ [ =.=.$.#.#.=.$.} %.{ { 9 + V V m V B B l ^ 6.j.b.",
"m.j.6.' R C : , , B B o $ $ $ $ $ $ $ $ + $ < 1 1 o = m : B m B V B Z V A B < F F F 6 6 6 F 6 4 4 4 < < - , m , m = 5 R ] 6.j.b.",
"B.l.0.>.~ C : : : 3 B B B B B V B , , , , , B V B m m m B , B m N Z B V D L ` ( K J K P ( P K L L Z m M Z V V B B ; 3 ! ;.0.l.n.",
"B.b.j.6.' E Z O = 3 Z Z C Z Z A Z B , , B B V Z V B m B B o B B V V = Z K L L J Z A J L L K P L Z m V V B m ; , = m C ^ 6.j.b.B.",
"Z.B.v.j.<.' ! k s 2 6 6 6 6 2 2 2 1 1 1 1 1 1 1 1 1 1 2 2 1 1 1 1 1 4 1 1 1 1 1 1 1 1 1 1 1 1 1 1 1 1 1 1 1 1 6 s R ^ ,.h.l.b.V.",
"B.B.b.l.g.5.;.^ ! Q R T T T T T R R T l k l l l l k l l T T T l l l l l l l l l l l l l T l l l l l l l l l l R ! ^ ,.0.j.l.l.b.",
"S.S.B.b.l.j.9.5.,.:.] ' ^ ^ ^ ' ] :.] ^ ^ ^ ^ ~ ~ ! ! ^ ^ ' ' ^ ^ ^ ^ ^ ^ ^ ^ ^ ^ ^ ^ ^ ^ ^ ^ ^ ^ ^ ^ ^ ~ ~ ^ ] ;.<.0.j.j.j.l.b.",
"S.S.B.B.b.l.l.j.0.0.6.6.6.6.6.6.g.h.0.9.9.9.<.:.,.,.>.,.<.6.6.6.6.6.6.5.5.6.9.0.0.0.6.6.<.5.6.6.5.<.<.<.5.6.6.9.0.g.j.l.l.z.b.B.",
"B.B.B.n.b.c.l.l.j.j.j.j.j.j.j.j.j.j.l.l.l.l.j.0.0.g.j.h.h.j.j.j.j.j.j.0.0.0.j.j.j.j.j.0.0.j.j.j.j.j.g.j.j.j.j.j.l.l.l.l.b.b.n.B."
};
